<?xml version="1.0" encoding="UTF-8" standalone="no"?>
<svg
   xmlns:dc="http://purl.org/dc/elements/1.1/"
   xmlns:cc="http://creativecommons.org/ns#"
   xmlns:rdf="http://www.w3.org/1999/02/22-rdf-syntax-ns#"
   xmlns:svg="http://www.w3.org/2000/svg"
   xmlns="http://www.w3.org/2000/svg"
   xmlns:sodipodi="http://sodipodi.sourceforge.net/DTD/sodipodi-0.dtd"
   xmlns:inkscape="http://www.inkscape.org/namespaces/inkscape"
   width="200mm"
   height="135mm"
   viewBox="0 0 200 135"
   version="1.1"
   id="svg8"
   inkscape:version="1.0.2-2 (e86c870879, 2021-01-15)"
   sodipodi:docname="title-image.svg">
  <defs
     id="defs2" />
  <sodipodi:namedview
     id="base"
     pagecolor="#ffffff"
     bordercolor="#666666"
     borderopacity="1.0"
     inkscape:pageopacity="0.0"
     inkscape:pageshadow="2"
     inkscape:zoom="0.70710678"
     inkscape:cx="-183.44255"
     inkscape:cy="-89.376112"
     inkscape:document-units="mm"
     inkscape:current-layer="g959"
     inkscape:document-rotation="0"
     showgrid="false"
     fit-margin-top="0"
     fit-margin-left="0"
     fit-margin-right="0"
     fit-margin-bottom="0"
     inkscape:window-width="2560"
     inkscape:window-height="1351"
     inkscape:window-x="-9"
     inkscape:window-y="-9"
     inkscape:window-maximized="1" />
  <metadata
     id="metadata5">
    <rdf:RDF>
      <cc:Work
         rdf:about="">
        <dc:format>image/svg+xml</dc:format>
        <dc:type
           rdf:resource="http://purl.org/dc/dcmitype/StillImage" />
        <dc:title></dc:title>
      </cc:Work>
    </rdf:RDF>
  </metadata>
  <g
     inkscape:label="Ebene 1"
     inkscape:groupmode="layer"
     id="layer1"
     transform="translate(-1.7801113,-17.574489)">
    <rect
       style="fill:#808080;stroke:none;stroke-width:0.264583"
       id="rect28-3"
       width="7.3070521"
       height="32.452282"
       x="37.238712"
       y="82.304977" />
    <path
       style="fill:#cccccc;stroke:none;stroke-width:0.126258"
       d="M 38.134715,106.29131 C 33.604613,104.58262 29.539934,102.36316 26.333549,99.847472 20.746475,95.463908 16.299691,89.765646 13.583627,83.509276 10.076751,75.431292 9.1773905,66.922917 10.922488,58.333555 c 0.588958,-2.898858 1.728204,-6.515346 2.77786,-8.818101 0.768988,-1.687041 2.402876,-4.624162 3.288128,-5.910818 0.365136,-0.530708 0.842238,-1.240617 1.060216,-1.577579 0.561868,-0.868549 2.709183,-3.394986 4.026244,-4.737102 7.687815,-7.834067 18.355679,-12.386338 29.329763,-12.515817 4.333135,-0.05112 6.924944,0.287412 11.399382,1.488967 4.249019,1.141038 6.641696,2.102159 9.853503,3.958152 1.946093,1.124581 2.342648,1.380708 3.955334,2.554715 8.064956,5.871137 13.786725,14.435666 16.113382,24.11905 1.369976,5.701729 1.517573,11.509903 0.444832,17.505256 -0.54156,3.026645 -2.209725,8.162184 -3.384064,10.417959 -3.104109,5.962676 -6.00185,9.731704 -10.48659,13.639675 -3.572371,3.112928 -8.685635,6.087308 -13.187925,7.671368 -6.554561,2.30613 -12.132701,2.90329 -19.80409,2.12011 -1.163897,-0.11882 -7.01118,-1.51958 -8.17375,-1.95807 z m 0.936459,-0.32349 c 0.01798,-0.0671 -0.261057,-0.20075 -0.620104,-0.29706 -0.359048,-0.0963 -0.996952,-0.29499 -1.41755,-0.44151 -1.105866,-0.38524 -0.621566,-0.12201 0.639263,0.34749 0.58831,0.21906 1.13626,0.42411 1.217667,0.45566 0.0814,0.0315 0.162736,0.002 0.180724,-0.0646 z m 5.365052,1.44159 c 0.449382,0.0669 -0.425031,-0.18208 -1.943133,-0.55329 -1.518052,-0.3714 -2.788377,-0.6612 -2.822839,-0.6444 -0.114973,0.056 3.936918,1.07421 4.765976,1.19766 z m 1.488796,0.17586 c -0.109128,-0.0622 -0.30121,-0.11367 -0.426814,-0.11447 -0.125593,-9.6e-4 -0.0363,0.05 0.198448,0.11302 0.234741,0.063 0.337521,0.0636 0.228363,10e-4 z m -10.028797,-2.81728 c -0.07476,-0.0563 -0.211956,-0.0931 -0.304872,-0.0818 -0.09292,0.0114 -0.03176,0.0574 0.135935,0.1024 0.167656,0.0451 0.243706,0.0357 0.168933,-0.0206 z m 11.275649,3.03217 c -0.02965,-0.0514 -0.13367,-0.0839 -0.231149,-0.0723 -0.107725,0.0128 -0.08658,0.0494 0.05392,0.0935 0.127129,0.0398 0.20688,0.0303 0.177235,-0.0212 z m 0.829809,0.0843 c -0.07477,-0.0563 -0.211956,-0.0931 -0.304869,-0.0818 -0.09292,0.0113 -0.03177,0.0575 0.135933,0.10238 0.167654,0.045 0.243694,0.0356 0.168933,-0.0206 z m -8.88202,-2.59005 c 0.02156,-0.0841 0.06074,-0.36769 0.08663,-0.63036 l 0.04707,-0.47758 -0.624149,-0.1679 c -0.962401,-0.25912 -4.242094,-1.49279 -5.478375,-2.06097 -0.609774,-0.28024 -1.163293,-0.50501 -1.230043,-0.4995 -0.06675,0.006 0.0178,0.2984 0.187878,0.65086 0.290718,0.60247 0.36654,0.66742 1.266345,1.08483 0.819748,0.38027 3.337186,1.37917 4.934645,1.95801 0.262114,0.095 0.542684,0.20032 0.623498,0.23408 0.08081,0.0338 0.164726,-0.007 0.186483,-0.0914 z m 5.982672,1.62188 c 1.781334,0.3215 1.846753,0.31194 2.295951,-0.33549 l 0.22151,-0.31926 -1.210307,-0.23904 c -0.665672,-0.13146 -2.440813,-0.53109 -3.944771,-0.88803 -2.027035,-0.48108 -2.744794,-0.61048 -2.77439,-0.50015 -0.02195,0.0819 -0.05163,0.32952 -0.06593,0.55036 l -0.026,0.40153 1.918449,0.51459 c 1.055141,0.28304 2.668572,0.65018 3.585494,0.81548 z m 4.235241,0.62564 c 0.890458,0.0933 2.368454,0.18689 3.284449,0.20785 1.527799,0.035 1.724122,0.008 2.375412,-0.32729 0.390484,-0.20096 0.689214,-0.39764 0.663841,-0.43706 -0.02539,-0.0395 -0.86516,-0.10216 -1.866179,-0.13952 -1.001026,-0.0373 -2.685405,-0.16403 -3.743064,-0.28161 -1.83545,-0.20406 -1.932055,-0.20086 -2.12151,0.0701 -0.109174,0.15613 -0.263181,0.36946 -0.342237,0.47408 -0.179174,0.2371 -0.219996,0.22698 1.74927,0.43352 z m -17.763455,-5.38269 c -0.0088,-0.0563 -0.09691,-0.33598 -0.195649,-0.62149 -0.172839,-0.49977 -0.232673,-0.54665 -1.604179,-1.25686 -1.146881,-0.593878 -3.345849,-1.923888 -4.391726,-2.65625 -0.318235,-0.222841 0.08095,0.459854 0.60316,1.031542 0.605891,0.6633 1.404299,1.22882 3.471852,2.459138 1.70328,1.01354 2.146148,1.23198 2.116542,1.04392 z m 7.900905,0.54807 c 0.178632,-0.98802 0.176397,-1.00401 -0.163885,-1.17238 -0.18975,-0.0939 -0.634089,-0.24824 -0.987432,-0.34302 -1.079689,-0.28962 -4.680254,-1.709278 -6.190882,-2.440998 -0.34274,-0.16602 -0.66919,-0.31419 -0.725448,-0.32928 -0.113341,-0.0303 -0.09019,0.32702 0.09552,1.48849 0.120374,0.752128 0.143493,0.787078 0.714817,1.081078 1.077396,0.55439 3.856003,1.68591 5.437528,2.2143 0.857784,0.28658 1.577397,0.5171 1.599146,0.51228 0.02175,-0.005 0.12081,-0.45961 0.220637,-1.01047 z m 7.711582,2.97696 0.753899,0.11342 0.533395,-0.89172 c 0.293365,-0.49045 0.513519,-0.92617 0.489227,-0.96827 -0.02427,-0.042 -0.980966,-0.25867 -2.125894,-0.4814 -1.144945,-0.22267 -3.110449,-0.68159 -4.367781,-1.01983 l -2.286013,-0.61517 -0.105394,0.39657 c -0.05803,0.2181 -0.149173,0.70255 -0.202846,1.07648 l -0.09759,0.67986 3.327497,0.79821 c 1.830087,0.439 3.666717,0.84925 4.081364,0.91163 z m 3.66147,0.48256 c 1.849131,0.18415 5.253098,0.31156 5.575443,0.20868 0.308106,-0.0983 1.717783,-1.53652 1.639336,-1.67249 -0.02444,-0.0424 -0.733586,-0.10552 -1.575873,-0.14034 -2.113169,-0.0874 -4.387052,-0.25943 -5.779835,-0.43733 -1.105048,-0.14114 -1.180037,-0.13269 -1.326042,0.1495 -0.08511,0.16451 -0.308144,0.56113 -0.495621,0.88139 -0.187477,0.32026 -0.350541,0.61837 -0.362367,0.66246 -0.02319,0.0865 0.530343,0.1694 2.324959,0.34813 z m 7.192858,1.3706 c 0.801353,-0.0828 1.840809,-0.22988 2.309916,-0.32677 0.95367,-0.19701 2.390263,-0.65196 2.339036,-0.74074 -0.01827,-0.0318 -0.579511,0.0227 -1.247089,0.12103 -0.667582,0.0983 -2.018378,0.21778 -3.001773,0.26545 -1.524986,0.0739 -1.862654,0.13506 -2.295623,0.4156 -0.864002,0.55987 -0.902001,0.55455 1.895533,0.26543 z M 30.912799,99.216222 c -0.06339,-0.61563 -0.167326,-1.150691 -0.230984,-1.18903 -0.06366,-0.03832 -0.739775,-0.389348 -1.502486,-0.780042 -0.762709,-0.390689 -2.281981,-1.276846 -3.376159,-1.969237 -1.094174,-0.692392 -2.017463,-1.242708 -2.051751,-1.222924 -0.07237,0.04176 0.432968,1.547536 0.715657,2.1325 0.145393,0.300854 0.613459,0.673247 1.916363,1.524678 1.409252,0.920915 4.495038,2.683433 4.614298,2.635553 0.01668,-0.007 -0.02155,-0.515868 -0.08494,-1.131498 z m -6.50686,-1.937319 c -0.184059,-0.307638 -0.844641,-0.959011 -1.593458,-1.571238 -1.50155,-1.227642 -1.584477,-1.287087 -1.304122,-0.934763 0.22173,0.278643 3.051358,2.982915 3.153528,3.013813 0.0321,0.0098 -0.08304,-0.218789 -0.255948,-0.507812 z m 34.879627,9.016977 c 2.740056,-0.18232 4.904557,-0.54977 5.454826,-0.92603 0.801192,-0.54784 1.869957,-1.47597 1.670312,-1.45051 -0.107216,0.0137 -1.013596,0.13502 -2.014203,0.26969 -1.000602,0.13468 -2.658194,0.28348 -3.683534,0.33067 l -1.864245,0.0858 -0.791319,0.89911 c -0.435225,0.4945 -0.773484,0.90387 -0.751686,0.90972 0.02181,0.006 0.912725,-0.0474 1.979849,-0.11846 z m -19.389592,-5.83957 c 0.105304,-0.39258 0.245326,-1.052168 0.311217,-1.465728 l 0.119745,-0.75194 -1.744167,-0.623995 c -1.942075,-0.694796 -6.133261,-2.398141 -6.703719,-2.724461 -0.315578,-0.180529 -0.376804,-0.179102 -0.427512,0.01 -0.09614,0.358393 -0.214953,2.741898 -0.142426,2.857155 0.190238,0.302332 5.862322,2.646559 7.881526,3.257379 l 0.513872,0.15544 z m 7.303015,2.58451 c 1.047373,0.20418 1.959064,0.34047 2.025969,0.30288 0.06691,-0.0376 0.358593,-0.66922 0.648193,-1.40363 l 0.52655,-1.33528 -1.174622,-0.22821 c -3.411982,-0.662888 -5.685582,-1.188558 -6.968171,-1.611078 l -1.430331,-0.47118 -0.146275,0.86286 c -0.08046,0.47457 -0.223169,1.151058 -0.317144,1.503318 l -0.170809,0.64047 2.551185,0.68432 c 1.403151,0.37639 3.408136,0.85137 4.455507,1.05557 z m 4.538109,0.702 c 1.466482,0.16295 6.736759,0.4513 6.848594,0.37471 0.06487,-0.0444 1.376418,-2.11014 1.569648,-2.47223 0.1465,-0.27452 0.136951,-0.32258 -0.06297,-0.31696 -1.838238,0.0518 -5.449407,-0.16486 -7.30598,-0.43826 -2.081515,-0.30652 -1.881063,-0.36174 -2.241317,0.61737 -0.172495,0.46881 -0.417263,1.104 -0.54392,1.41153 -0.163859,0.39786 -0.18786,0.57054 -0.08325,0.5986 0.08083,0.0218 0.8995,0.12304 1.819195,0.22524 z M 23.616907,95.384173 c -0.08486,-0.256425 -0.217904,-0.751702 -0.29566,-1.100613 -0.17207,-0.772126 -0.207957,-0.819854 -1.15997,-1.542705 -0.885401,-0.672278 -3.198704,-2.716187 -3.840919,-3.393633 -0.530837,-0.559955 -0.519771,-0.368357 0.04673,0.809161 0.712467,1.480909 0.946311,1.778746 2.662704,3.391347 0.82795,0.777871 2.485123,2.178644 2.701112,2.283175 0.02213,0.01086 -0.02914,-0.190306 -0.113998,-0.446732 z m 7.152073,2.049187 c 0.0032,-0.01718 0.04561,-0.69042 0.09485,-1.496089 l 0.08951,-1.464832 -2.379542,-1.316992 c -1.308753,-0.72434 -3.019786,-1.740041 -3.802292,-2.257106 -0.782505,-0.51707 -1.46193,-0.917513 -1.509826,-0.889874 -0.1146,0.06613 0.03222,2.041222 0.201974,2.71696 0.1271,0.505956 0.203158,0.57545 1.741339,1.590878 2.237459,1.477073 5.529126,3.321128 5.563981,3.117055 z m 30.42836,6.57648 c 0.967858,-0.0553 2.716922,-0.23853 3.886799,-0.40728 l 2.127056,-0.30681 0.868859,-1.02953 c 1.018216,-1.20652 1.3323,-1.70683 1.045706,-1.66572 -2.36267,0.33886 -4.270913,0.54301 -6.042763,0.64649 l -2.191229,0.12796 -0.657232,1.0923 c -0.902415,1.49979 -0.956386,1.60029 -0.871449,1.62307 0.04099,0.011 0.866396,-0.0252 1.834253,-0.0805 z m 6.781539,0.6584 c 0.712958,-0.23845 1.629985,-0.58107 2.037838,-0.76139 0.795318,-0.35162 2.854626,-1.58514 2.801128,-1.67786 -0.01775,-0.0308 -0.623198,0.14473 -1.345395,0.39006 -0.722202,0.24534 -1.908271,0.58689 -2.635708,0.75902 -1.228124,0.29061 -1.382951,0.36538 -2.167282,1.04654 -0.464579,0.40347 -0.853083,0.76491 -0.863352,0.80319 -0.0304,0.114 0.793322,-0.0982 2.172771,-0.55956 z M 49.009648,99.828992 c 1.764527,0.296108 1.569,0.452438 2.337484,-1.868984 l 0.507528,-1.533129 -0.612766,-0.08255 C 49.937754,96.168636 46.556242,95.425275 44.2542,94.808218 l -2.408569,-0.645602 -0.14211,0.529787 c -0.07816,0.291385 -0.26261,1.121199 -0.409834,1.844054 l -0.267731,1.314259 0.363139,0.157537 c 0.590248,0.256039 6.003064,1.549309 7.62055,1.820759 z m -8.170263,-3.413199 c 0.189351,-0.72579 0.373435,-1.576506 0.409063,-1.89049 l 0.06478,-0.570869 -2.215477,-0.756293 c -1.218515,-0.415952 -3.136667,-1.159824 -4.262557,-1.653038 -1.125897,-0.493219 -2.21865,-0.969871 -2.428343,-1.059231 -0.449509,-0.191565 -0.396433,-0.324416 -0.696163,1.742475 -0.125448,0.86506 -0.244435,1.635687 -0.264413,1.712506 -0.02011,0.07678 0.03785,0.193593 0.128547,0.259499 0.475738,0.345766 6.422962,2.737517 8.288144,3.333186 l 0.632132,0.201887 0.344292,-1.319617 z m -17.933876,-4.03295 c -0.01918,-0.130966 -0.07323,-0.843509 -0.120122,-1.583429 L 22.700127,89.4541 21.598321,88.596283 c -1.377804,-1.072702 -2.638499,-2.181775 -3.82068,-3.361178 -0.503683,-0.502507 -0.934832,-0.902664 -0.958108,-0.889235 -0.05372,0.03097 0.172928,1.404305 0.414346,2.510583 0.161173,0.738565 0.281585,0.951179 0.928166,1.638927 1.216452,1.293901 4.230076,3.929099 4.676128,4.088954 0.0562,0.02018 0.08651,-0.07054 0.06734,-0.201491 z m 30.221293,8.067597 c 1.60123,0.19277 5.609717,0.43888 6.943359,0.42631 0.266151,-0.002 0.53696,-0.0915 0.601796,-0.19764 0.229336,-0.37559 0.827586,-1.714438 1.146052,-2.564797 0.279398,-0.746018 0.295384,-0.861007 0.119218,-0.857267 -2.126321,0.04505 -8.14081,-0.411653 -9.214583,-0.699683 -0.371572,-0.09965 -0.384616,-0.0883 -0.545115,0.474714 -0.09045,0.31724 -0.211389,0.68187 -0.26883,0.81025 -0.336606,0.752705 -0.81133,2.331433 -0.709285,2.358813 0.06424,0.0172 0.931565,0.12941 1.927388,0.2493 z m -21.97498,-7.620355 c 0.06692,-0.575192 0.186658,-1.441951 0.266088,-1.926123 l 0.144427,-0.880316 -1.250663,-0.625369 c -1.447337,-0.723719 -4.618531,-2.624246 -5.948612,-3.56507 l -0.915372,-0.647478 -0.06006,0.534192 c -0.133347,1.185912 -0.21123,3.199099 -0.13171,3.404546 0.164969,0.426203 6.451532,4.329848 7.522866,4.671313 0.24673,0.07866 0.253638,0.06074 0.373043,-0.965695 z M 17.538255,89.439846 C 17.273162,88.526722 16.846818,87.75308 16.079578,86.792929 l -0.90731,-1.135445 0.463404,0.897491 c 0.479612,0.928866 1.772491,3.013374 1.888252,3.044426 0.03615,0.0098 0.04265,-0.0621 0.01433,-0.159555 z m 52.296003,13.197894 c 0.856441,-0.24449 2.255439,-0.7219 3.108866,-1.0609 1.548593,-0.61516 1.553933,-0.61874 2.671272,-1.795748 0.615769,-0.64865 1.136513,-1.2425 1.157214,-1.31968 0.02091,-0.0771 -0.535285,0.0767 -1.235517,0.34187 -1.426599,0.54029 -3.560336,1.18477 -4.728061,1.428058 -0.729628,0.15201 -0.797289,0.19834 -1.18835,0.8137 -0.228071,0.35888 -0.656855,0.92411 -0.952849,1.25607 -0.296005,0.33195 -0.545975,0.63256 -0.55548,0.66801 -0.03918,0.14578 0.238116,0.0925 1.722905,-0.33138 z m -6.268225,-1.91262 c 2.005251,-0.12846 3.753877,-0.3305 5.460466,-0.63089 l 0.768523,-0.135268 0.801564,-1.45099 c 0.440852,-0.798044 0.841525,-1.601297 0.890376,-1.785003 l 0.08863,-0.334061 -0.787172,0.132423 c -1.720381,0.289404 -4.128681,0.54352 -5.952908,0.628126 -1.055632,0.04896 -1.996557,0.1332 -2.090941,0.187214 -0.09439,0.05401 -0.372871,0.603046 -0.618866,1.220081 -0.245994,0.61704 -0.553136,1.37289 -0.682546,1.679688 -0.146843,0.34813 -0.188965,0.57024 -0.112115,0.59086 0.06778,0.0181 1.073403,-0.0278 2.234777,-0.10224 z M 22.689436,88.403243 c 0.0096,-0.19512 0.08634,-1.071103 0.170393,-1.946628 0.08406,-0.875519 0.14452,-1.59942 0.134376,-1.608664 -0.01018,-0.0093 -0.313298,-0.233401 -0.673667,-0.49812 -1.065397,-0.78261 -3.77466,-3.15859 -4.682826,-4.106749 -0.991869,-1.035561 -0.952309,-1.077564 -0.9782,1.038459 -0.02593,2.118996 -0.04607,2.051458 0.911321,3.056479 1.259408,1.322056 4.583421,4.237691 4.997533,4.383537 0.05688,0.02018 0.111413,-0.123189 0.121058,-0.318314 z m -6.1141,-2.293644 C 16.486446,85.672344 16.375357,84.932 16.328479,84.464386 16.249059,83.672223 16.189465,83.549865 15.455554,82.672202 15.022323,82.154117 14.30957,81.192839 13.871654,80.536028 12.623215,78.663536 12.70042,78.7366 12.876903,79.594555 c 0.432432,2.102208 1.290643,3.891242 2.934422,6.117154 0.47466,0.642753 0.877106,1.174101 0.894328,1.180772 0.01723,0.0067 -0.04142,-0.345632 -0.130317,-0.782882 z m 26.027696,3.053759 c -0.02513,-0.04357 -0.973798,-0.40457 -2.108182,-0.802318 -2.1963,-0.770079 -3.112527,-1.133687 -5.676134,-2.252582 -0.887034,-0.387149 -1.635231,-0.687299 -1.662667,-0.667 -0.02744,0.02029 -0.275128,1.005604 -0.550468,2.18955 l -0.500583,2.152647 0.753129,0.359991 c 2.027053,0.968907 5.839165,2.468567 7.922341,3.116573 l 0.663599,0.206416 0.602311,-2.112077 c 0.331261,-1.161641 0.581775,-2.147679 0.556645,-2.191218 z m 8.147143,6.60804 c 0.61698,0.09065 1.162143,0.141618 1.21147,0.113253 0.04931,-0.0284 0.366068,-1.008419 0.703862,-2.177905 l 0.614195,-2.12634 -0.732293,-0.11363 C 50.712464,91.182052 48.12624,90.616266 45.74575,89.978771 l -2.591623,-0.694181 -0.593197,2.211448 -0.593199,2.211457 3.830354,0.949481 c 2.106705,0.522184 4.335163,1.023636 4.952142,1.114289 z m 4.932543,0.656435 c 2.426208,0.226968 4.864371,0.370877 5.913257,0.349016 0.69483,-0.0145 0.697297,-0.01599 0.922256,-0.570391 0.427457,-1.053386 1.258135,-3.742997 1.163817,-3.768298 -0.05202,-0.01375 -0.307609,-0.02386 -0.568067,-0.0221 -2.135779,0.0147 -6.680123,-0.321869 -8.442373,-0.62526 l -0.905893,-0.155962 -0.450059,1.677857 c -0.24755,0.922825 -0.554033,1.924912 -0.681077,2.22687 l -0.231013,0.549014 0.555646,0.06822 c 0.305608,0.0375 1.531191,0.159483 2.723516,0.271028 z M 32.190811,87.35705 c 0.285409,-1.163665 0.491964,-2.158355 0.459011,-2.210431 -0.03298,-0.05206 -0.905379,-0.541235 -1.938732,-1.087018 -1.033354,-0.545773 -2.8553,-1.627188 -4.04877,-2.403128 l -2.16995,-1.410805 -0.462759,2.026597 c -0.254522,1.114634 -0.436769,2.129203 -0.404998,2.254606 0.07204,0.284365 0.935937,0.907401 3.30356,2.382532 1.765651,1.100073 3.979903,2.323836 4.49962,2.486836 0.237699,0.07452 0.257708,0.02104 0.763018,-2.039189 z m 38.940731,12.291292 c 1.488572,-0.31134 4.82446,-1.40996 5.91393,-1.947657 0.366224,-0.180742 0.653968,-0.479271 1.064266,-1.104154 0.681134,-1.037365 1.412426,-2.398393 1.348354,-2.509451 -0.02572,-0.04447 -0.526224,0.111187 -1.112319,0.345981 -1.386988,0.555622 -2.721436,0.978509 -4.539695,1.438629 -0.80989,0.204951 -1.495687,0.381427 -1.523989,0.392165 -0.02835,0.01075 -0.251974,0.454757 -0.497042,0.986701 -0.245079,0.531945 -0.645455,1.310626 -0.889737,1.730406 -0.24428,0.41978 -0.42225,0.7691 -0.395489,0.77628 0.02681,0.007 0.311031,-0.0418 0.631721,-0.10889 z m -6.459991,-2.960804 c 1.874654,-0.08365 4.182117,-0.330654 5.857446,-0.627003 1.216452,-0.215181 1.324035,-0.26009 1.489364,-0.62179 0.308941,-0.675889 1.327257,-3.703757 1.288767,-3.832022 -0.02023,-0.06747 -0.454772,-0.03603 -0.965615,0.06991 -1.190526,0.246848 -4.367296,0.573722 -6.433753,0.661998 l -1.609432,0.06875 -0.295247,0.835856 c -0.777842,2.202128 -1.116479,3.426077 -0.959591,3.468161 0.08577,0.023 0.818386,0.01226 1.628038,-0.02386 z m 14.551769,1.16125 c 2.22491,-1.866532 2.281663,-2.041523 0.295146,-0.909964 -1.634785,0.931194 -1.780411,1.046322 -2.500008,1.976208 -0.420261,0.54306 -0.76815,1.00246 -0.77309,1.02088 -0.04662,0.173938 1.955056,-1.22898 2.977952,-2.087124 z M 16.155286,82.244082 c -0.02055,-0.202226 0.006,-1.067472 0.05901,-1.922768 0.06546,-1.05632 0.04238,-1.607657 -0.07194,-1.71902 -0.517261,-0.503861 -2.239654,-2.857809 -2.965429,-4.052773 l -0.840718,-1.384201 -0.01075,0.753558 c -0.0059,0.414454 0.02008,1.314735 0.05773,2.000618 0.06398,1.165397 0.112172,1.327205 0.735947,2.471023 0.902563,1.655005 2.827527,4.363165 3.021709,4.251128 0.02846,-0.01641 0.03496,-0.195344 0.01442,-0.397565 z m 7.120273,1.152894 c 0.08168,-0.499341 0.301498,-1.491775 0.488476,-2.205406 l 0.33994,-1.297518 -0.898983,-0.669057 c -1.15724,-0.861276 -3.508524,-2.936855 -4.624124,-4.081929 l -0.871254,-0.894269 -0.161333,0.434577 c -0.196232,0.528599 -0.694649,3.452404 -0.655022,3.842444 0.03087,0.303869 0.785229,1.118718 2.582594,2.78968 1.208824,1.12381 3.312546,2.884232 3.525825,2.950442 0.08336,0.02582 0.17511,-0.26534 0.273853,-0.868973 z m 20.188669,2.782156 0.667102,-2.486967 -1.10644,-0.382997 c -2.419136,-0.837402 -4.870986,-1.798411 -6.46742,-2.53492 -0.922998,-0.42582 -1.727745,-0.74202 -1.788322,-0.702655 -0.06058,0.03937 -0.428599,1.120273 -0.817821,2.402034 -0.550893,1.814145 -0.677131,2.351953 -0.569795,2.42746 0.598752,0.421149 6.146443,2.667619 8.401788,3.402189 0.396725,0.129206 0.787122,0.263707 0.86756,0.298877 0.11294,0.04937 0.298176,-0.502444 0.81335,-2.423017 z m 7.735586,4.543806 c 1.099205,0.190654 2.043286,0.357386 2.097965,0.370499 0.118716,0.02863 1.321219,-4.686235 1.233724,-4.837259 -0.03341,-0.05757 -1.036327,-0.300256 -2.228805,-0.539316 -1.192484,-0.239046 -3.407752,-0.768074 -4.922822,-1.175604 l -2.754696,-0.740893 -0.670154,2.498347 -0.670155,2.498351 2.958205,0.789554 c 1.626964,0.434428 3.857496,0.945772 4.956728,1.136317 z m 4.826776,0.767932 c 1.489299,0.187986 5.741155,0.451302 7.121691,0.441042 l 0.770824,-0.0058 0.395357,-1.795753 c 0.217462,-0.987661 0.444888,-2.107175 0.505473,-2.487782 l 0.110147,-0.692019 -1.451151,-0.02233 c -1.465153,-0.02253 -6.320848,-0.393881 -7.689769,-0.588087 l -0.741161,-0.105145 -0.168446,0.937674 c -0.09266,0.515719 -0.357194,1.641424 -0.587937,2.501534 l -0.419493,1.563866 0.350203,0.0346 c 0.192621,0.019 1.004535,0.11718 1.804267,0.218126 z m 19.967463,3.29031 c 1.450312,-0.446551 3.796935,-1.389589 3.936838,-1.58208 0.159073,-0.218866 0.808709,-1.833571 1.251016,-3.109434 l 0.388709,-1.121276 -1.132871,0.445539 c -1.624126,0.638736 -3.377652,1.201187 -5.108506,1.638575 l -1.505594,0.380462 -0.352614,1.278001 c -0.193942,0.702886 -0.498488,1.663213 -0.676812,2.134052 l -0.324211,0.85605 1.192062,-0.284451 c 0.655634,-0.156449 1.70502,-0.442393 2.331979,-0.635438 z m 4.239237,1.197541 c 0.96853,-0.599888 2.516538,-1.813954 2.99591,-2.349615 0.440871,-0.492648 2.085387,-2.968518 2.032561,-3.060082 -0.01656,-0.02868 -0.412813,0.239833 -0.880588,0.596675 -0.943911,0.720069 -1.572139,1.11439 -3.043219,1.910133 l -0.993272,0.537288 -0.9135,1.672178 -0.91351,1.672184 0.535414,-0.289701 c 0.294481,-0.159326 0.825572,-0.469412 1.180204,-0.68906 z M 33.585312,82.175451 c 0.385465,-1.316562 0.697541,-2.406347 0.693527,-2.421737 -0.004,-0.01536 -0.522504,-0.293093 -1.152222,-0.617129 -1.231177,-0.633524 -5.085804,-2.969176 -6.206235,-3.760571 -0.376322,-0.265817 -0.728743,-0.457612 -0.783152,-0.426213 -0.05442,0.0314 -0.412711,1.111661 -0.796214,2.400594 l -0.697284,2.343522 0.611402,0.443496 c 0.902113,0.654368 4.021008,2.617145 4.942783,3.110579 0.440086,0.235581 1.108854,0.593287 1.486159,0.794892 1.286845,0.68761 1.099228,0.871898 1.901223,-1.867442 z m 32.700525,9.666215 c 1.724303,-0.07843 4.293489,-0.357983 6.084776,-0.662076 l 1.080695,-0.183457 0.537489,-2.248187 c 0.295603,-1.236505 0.511009,-2.352669 0.47866,-2.480376 -0.05262,-0.207647 -0.167538,-0.211564 -1.086698,-0.03713 -0.565324,0.107306 -2.025518,0.295918 -3.244862,0.419139 -2.243052,0.226672 -2.543799,0.246777 -3.886728,0.259824 l -0.747039,0.0072 -0.454338,1.935247 c -0.526318,2.241717 -0.649759,2.993957 -0.49805,3.034654 0.05969,0.01613 0.840957,-0.0043 1.736099,-0.0449 z M 16.495592,77.395238 c 0.05381,-0.363027 0.239103,-1.334516 0.411792,-2.158866 L 17.221367,73.737559 16.02897,72.21132 c -0.655818,-0.83943 -1.571644,-2.152164 -2.035173,-2.917194 -0.463528,-0.765026 -0.866498,-1.397319 -0.895484,-1.405097 -0.06001,-0.01618 -0.288564,1.246334 -0.537772,2.970708 -0.153549,1.062403 -0.14139,1.2396 0.127917,1.864411 0.512078,1.18803 3.216467,5.162148 3.603058,5.294702 0.05842,0.02014 0.15028,-0.260586 0.204085,-0.623612 z m 8.364829,-0.109208 c 0.360608,-1.143489 0.705519,-2.230368 0.766469,-2.415282 0.103992,-0.315497 0.04749,-0.385277 -0.917323,-1.132914 -1.343558,-1.04113 -3.732061,-3.176144 -4.547094,-4.064505 -0.354653,-0.386567 -0.691319,-0.674154 -0.748148,-0.639094 -0.131946,0.08141 -1.099669,2.715364 -1.375688,3.744375 -0.253281,0.944245 -0.292587,0.872046 1.357344,2.493427 1.413918,1.389454 4.353286,3.910921 4.738816,4.06508 0.0385,0.01541 0.365019,-0.907603 0.725624,-2.051087 z m -13.00092,-3.467492 c 0.01671,-1.372733 -0.03056,-1.737582 -0.314118,-2.42441 -0.183586,-0.444684 -0.466537,-1.220884 -0.628775,-1.724907 -0.162239,-0.504024 -0.303956,-0.882936 -0.314925,-0.84204 -0.06133,0.228638 0.245659,3.113937 0.425223,3.996525 0.214295,1.053303 0.689561,2.681909 0.769227,2.63594 0.02403,-0.01384 0.05255,-0.752364 0.06337,-1.641108 z m 40.791407,11.468118 c 1.087197,0.220804 2.009925,0.382282 2.050496,0.35887 0.07598,-0.04385 1.23585,-5.353488 1.185931,-5.428961 -0.01536,-0.02319 -0.843649,-0.180862 -1.840677,-0.350385 -0.997033,-0.169515 -3.146548,-0.65392 -4.776706,-1.076448 l -2.963916,-0.768242 -0.266825,0.994723 c -0.146753,0.547099 -0.503165,1.73252 -0.792004,2.634276 l -0.525184,1.639562 1.19515,0.3706 c 1.468147,0.455264 4.109913,1.093154 6.733732,1.62602 z m -8.105143,-2.981679 c 0.17067,-0.475464 0.530263,-1.668242 0.799118,-2.650606 l 0.488833,-1.786095 -0.808724,-0.292182 c -2.3501,-0.849026 -5.871658,-2.233288 -6.920796,-2.720424 -0.656012,-0.304604 -1.238535,-0.527654 -1.294495,-0.495667 -0.130048,0.07432 -1.897362,4.987612 -1.833724,5.097911 0.09306,0.161283 4.154919,1.940736 5.661008,2.480019 0.841666,0.301373 1.745028,0.624644 2.00747,0.718384 0.262451,0.09372 0.727788,0.247546 1.034096,0.341801 l 0.556933,0.171356 0.310289,-0.864497 z m 38.647449,9.103877 c 0.648848,-0.430669 1.55132,-1.108435 2.005495,-1.506148 0.7165,-0.62744 0.877468,-0.845256 1.216496,-1.646158 0.627807,-1.48307 1.124182,-2.964485 0.959019,-2.862145 -0.08098,0.05017 -0.780229,0.549327 -1.553886,1.109226 -0.773664,0.559898 -1.905394,1.271296 -2.514954,1.580891 l -1.108301,0.5629 -0.667124,1.88819 c -0.366921,1.038507 -0.735206,2.013016 -0.818414,2.165575 -0.131186,0.240535 -0.05476,0.225131 0.575327,-0.115958 0.399636,-0.216336 1.25749,-0.745704 1.906342,-1.176373 z m -26.337473,-5.44572 c 1.715358,0.208935 6.218848,0.507048 7.321122,0.48463 l 0.854346,-0.01737 0.148971,-0.66417 c 0.216647,-0.966306 0.736064,-4.468186 0.686961,-4.631821 -0.02567,-0.08564 -0.865809,-0.164384 -2.176269,-0.204001 -1.173934,-0.03546 -3.161658,-0.182317 -4.417174,-0.326316 -1.255516,-0.144003 -2.419732,-0.272006 -2.587142,-0.284465 -0.299946,-0.02233 -0.307491,-0.0068 -0.515744,1.057879 -0.116254,0.59429 -0.370566,1.817252 -0.565151,2.717686 -0.233759,1.081735 -0.307186,1.648848 -0.216409,1.671615 0.0756,0.0188 0.735497,0.107306 1.466527,0.196342 z m 18.8362,4.510742 c 1.738575,-0.439202 3.676123,-1.087758 5.012169,-1.677734 0.978104,-0.431914 1.004315,-0.454915 1.149474,-1.008352 0.151872,-0.579062 0.509973,-2.592875 0.651472,-3.663673 l 0.07884,-0.596642 -1.133067,0.463882 c -1.399329,0.572887 -3.096622,1.118722 -5.000708,1.60821 l -1.453408,0.373625 -0.04788,0.460895 c -0.02639,0.253486 -0.24199,1.333126 -0.479243,2.399195 -0.239433,1.075818 -0.380086,1.952049 -0.316118,1.969209 0.06338,0.01704 0.755697,-0.130876 1.538465,-0.328615 z M 34.79951,78.252886 c 0.565238,-1.588483 1.261559,-3.45383 1.433479,-3.840096 l 0.15945,-0.358245 -1.858912,-0.994499 c -1.681913,-0.8998 -5.367766,-3.183956 -5.815313,-3.603803 -0.146022,-0.136973 -0.210288,-0.109241 -0.34016,0.14679 -0.409137,0.80658 -1.414806,3.079795 -1.704649,3.853199 l -0.321884,0.858896 0.474199,0.373399 c 1.37047,1.07915 6.128244,3.926704 7.547522,4.517238 0.04178,0.01737 0.233597,-0.411414 0.426268,-0.952879 z m 33.664562,8.05034 c 2.416336,-0.16092 5.690369,-0.589499 6.132777,-0.802801 0.07055,-0.03402 0.271596,-1.834968 0.405692,-3.634034 l 0.12994,-1.74341 -1.998723,0.304428 c -1.813724,0.276248 -6.134003,0.613062 -6.5235,0.508586 -0.195392,-0.05236 -0.177679,-0.121132 -0.380339,1.47656 -0.09194,0.724794 -0.276248,1.876792 -0.409577,2.559997 -0.133347,0.6832 -0.229283,1.290046 -0.21324,1.348535 0.04038,0.147176 0.413901,0.144867 2.856975,-0.01785 z M 18.051044,71.191458 c 0.370289,-1.043916 0.752165,-2.073851 0.848608,-2.288752 0.165585,-0.368958 0.142573,-0.430015 -0.41351,-1.096422 -0.969561,-1.161943 -2.01484,-2.642005 -2.812713,-3.982661 l -0.752268,-1.26403 -0.186629,0.408201 c -0.34819,0.761574 -1.378457,3.836795 -1.367374,4.081447 0.0242,0.534349 3.536876,5.894374 3.945269,6.020125 0.03591,0.01131 0.36832,-0.833986 0.738617,-1.877908 z m -5.929053,-0.786306 c 0.04999,-0.399995 0.231533,-1.299943 0.403436,-1.999888 0.308123,-1.254599 0.308524,-1.281332 0.02716,-1.888173 -0.427988,-0.923103 -0.841906,-2.172761 -1.139887,-3.441393 -0.146637,-0.624295 -0.285174,-1.069548 -0.307866,-0.989444 -0.125918,0.44455 -0.434801,3.231601 -0.426322,3.846655 0.01557,1.129816 0.99729,5.095749 1.281971,5.178886 0.03882,0.01151 0.111504,-0.306649 0.161489,-0.706649 z m 14.900226,1.088276 c 1.154466,-2.752987 1.141064,-2.417333 0.127686,-3.19823 -1.278047,-0.984851 -3.176541,-2.677783 -4.19001,-3.736332 -0.489728,-0.511512 -0.915302,-0.936701 -0.945721,-0.944861 -0.09637,-0.0261 -1.422367,2.535365 -1.897134,3.66457 l -0.456307,1.085287 0.29936,0.382587 c 0.659377,0.842688 3.925574,3.808786 5.421359,4.923238 l 0.490267,0.365279 0.168726,-0.301359 c 0.09278,-0.165758 0.534599,-1.173834 0.981774,-2.240179 z m 59.59893,17.947582 c 0.22978,-0.354117 0.230519,-0.372523 0.0081,-0.201596 -0.134608,0.10346 -0.273819,0.296506 -0.309361,0.429013 -0.0829,0.309122 -0.01231,0.25583 0.301239,-0.227417 z m -2.229361,-2.56108 c 1.156506,-0.716465 2.356119,-1.60111 2.987353,-2.203005 0.271057,-0.258454 0.429209,-0.55903 0.572602,-1.088264 0.25632,-0.946345 0.734365,-3.791108 0.640381,-3.811565 -0.03975,-0.0088 -0.48631,0.32164 -0.992352,0.733979 -0.506032,0.412336 -1.721949,1.216901 -2.702037,1.787932 l -1.781977,1.03823 -0.151123,1.135954 c -0.08312,0.624773 -0.234642,1.466502 -0.336714,1.870496 -0.102057,0.404008 -0.206726,0.948889 -0.232542,1.210864 l -0.04696,0.476322 0.470768,-0.234174 c 0.258912,-0.1288 0.966584,-0.541345 1.572593,-0.916769 z M 53.801017,79.319943 c 1.058315,0.209088 2.00172,0.375792 2.096458,0.370442 0.114976,-0.0064 0.186155,-0.147768 0.214075,-0.425033 0.023,-0.228434 0.262438,-1.473828 0.532073,-2.767537 0.269644,-1.293711 0.462034,-2.398128 0.427543,-2.454264 -0.03451,-0.05611 -1.042968,-0.285325 -2.241105,-0.509216 -1.198123,-0.223938 -3.208026,-0.680595 -4.466443,-1.01479 l -2.288043,-0.607603 -0.403799,1.505366 c -0.222092,0.827953 -0.59547,2.077728 -0.829789,2.777263 l -0.425985,1.271906 0.766492,0.26085 c 1.0249,0.348792 4.246416,1.123986 6.618511,1.592644 z m 22.614572,5.7888 c 2.66579,-0.656502 6.155935,-1.934192 6.25094,-2.288385 0.131687,-0.490963 0.338002,-4.861482 0.239618,-5.076114 -0.01341,-0.02911 -0.408918,0.106514 -0.879008,0.301458 -1.453051,0.602574 -5.227937,1.761147 -6.404206,1.965554 -0.01109,0.0024 -0.06795,0.696562 -0.126403,1.543646 -0.05846,0.847085 -0.16699,2.038574 -0.241199,2.647767 -0.0742,0.609193 -0.08358,1.121394 -0.0208,1.13823 0.06274,0.01685 0.594238,-0.08764 1.181082,-0.232156 z M 46.370928,75.997222 c 0.245861,-0.742888 0.627619,-2.022865 0.848315,-2.844405 l 0.401169,-1.493726 -0.529175,-0.141942 c -0.923838,-0.247802 -4.126163,-1.481552 -6.002144,-2.312421 -1.173173,-0.519589 -1.849421,-0.766213 -1.920033,-0.700217 -0.05994,0.05603 -0.230051,0.401379 -0.377997,0.767449 -1.464582,3.623869 -1.766273,4.445165 -1.670321,4.547113 0.3204,0.340384 6.357136,2.802669 8.246419,3.363564 l 0.556616,0.165286 z m 11.444375,3.951998 c 1.827668,0.300749 5.114271,0.528189 7.620844,0.527373 l 0.507317,-1.67e-4 0.09371,-0.645426 c 0.08024,-0.552654 0.487321,-5.087232 0.462831,-5.155533 -0.0048,-0.01327 -0.79913,-0.03746 -1.765317,-0.05392 -1.71787,-0.02926 -3.668926,-0.180342 -5.954855,-0.461108 -1.100354,-0.135148 -1.140815,-0.129307 -1.193502,0.172095 -0.03001,0.17159 -0.254957,1.28766 -0.49991,2.480142 -0.568531,2.767729 -0.593212,3.009138 -0.307261,3.005482 0.122309,-0.0015 0.588567,0.05741 1.036142,0.131066 z m 30.267938,6.746666 c 0.781441,-1.18346 1.701282,-2.943652 2.156904,-4.127397 0.210983,-0.548135 0.21574,-0.609174 0.02992,-0.384138 -0.121499,0.147158 -0.627264,0.746797 -1.123929,1.332535 -0.874947,1.031878 -0.917728,1.109823 -1.37584,2.506818 -0.260043,0.793012 -0.543364,1.569963 -0.629597,1.726579 -0.11069,0.201028 -0.10837,0.259303 0.0079,0.198198 0.09057,-0.04762 0.511163,-0.611268 0.93463,-1.252595 z M 36.657313,73.260926 c 0.13076,-0.261985 0.696734,-1.661814 1.418535,-3.508454 0.2162,-0.553127 0.461697,-1.141924 0.54554,-1.308432 0.138734,-0.275508 0.112816,-0.321667 -0.288238,-0.51309 -0.876257,-0.418257 -4.601638,-2.614566 -5.7014,-3.361286 -0.619006,-0.42029 -1.173259,-0.732486 -1.231666,-0.693773 -0.176591,0.117055 -2.496952,4.462226 -2.612095,4.891478 -0.05725,0.213349 2.791988,2.088117 5.388857,3.545818 1.062291,0.596304 2.025845,1.111846 2.141223,1.145665 0.12248,0.03584 0.263664,-0.04648 0.339244,-0.197926 z m -23.259219,-8.00377 c 0.16203,-0.585634 0.504395,-1.56735 0.761142,-2.181492 L 14.626048,61.959021 14.10742,60.621056 C 13.822171,59.88517 13.446603,58.637348 13.272826,57.848119 l -0.315967,-1.434966 -0.455394,1.119698 c -0.250465,0.615832 -0.578933,1.561507 -0.729934,2.10149 -0.244388,0.873876 -0.255961,1.107835 -0.105293,2.128657 0.217795,1.475805 1.104452,4.459436 1.346759,4.531885 0.04997,0.01472 0.223209,-0.452055 0.385092,-1.037727 z m 6.834739,0.63394 c 0.412495,-0.854578 0.893534,-1.784391 1.068973,-2.066241 0.17544,-0.28185 0.328167,-0.544325 0.339399,-0.583291 0.0114,-0.03886 -0.23369,-0.369106 -0.544258,-0.733655 -0.949636,-1.114709 -1.69218,-2.16853 -2.566916,-3.643011 -0.460039,-0.775454 -0.866118,-1.392788 -0.9024,-1.371854 -0.09606,0.05542 -1.987811,3.465504 -2.237584,4.033476 l -0.212042,0.482169 1.03665,1.73252 c 0.570158,0.952885 1.487004,2.302785 2.037434,2.999782 0.941205,1.191816 1.007629,1.250491 1.115769,0.985581 0.06324,-0.154921 0.452483,-0.980886 0.864975,-1.835476 z m 48.586272,14.474158 c 2.220323,-0.141341 4.536945,-0.411275 5.755984,-0.670694 l 0.568001,-0.120873 0.04094,-1.333432 c 0.05471,-1.780865 -0.05175,-4.299531 -0.183225,-4.334791 -0.05805,-0.0157 -0.644047,0.0635 -1.302143,0.175727 -1.252995,0.213689 -5.113163,0.585839 -6.067405,0.584942 -0.39633,-3.68e-4 -0.57253,0.06323 -0.615125,0.222044 -0.03298,0.122372 -0.140104,1.16491 -0.238368,2.316684 -0.09828,1.151773 -0.211101,2.364846 -0.250737,2.695724 -0.03965,0.330877 -0.06286,0.604067 -0.05161,0.607078 0.01131,0.0028 1.065893,-0.06107 2.343664,-0.142409 z M 28.989923,67.249915 c 0.277205,-0.572717 0.841759,-1.649022 1.25457,-2.391797 0.412806,-0.742775 0.736039,-1.375666 0.718292,-1.406425 -0.01775,-0.03074 -0.537678,-0.459856 -1.155406,-0.953559 -1.23649,-0.988229 -3.523924,-3.071074 -4.078046,-3.713312 -0.194352,-0.225254 -0.399976,-0.378704 -0.456938,-0.340996 -0.173166,0.114626 -1.867115,2.658997 -2.470857,3.711316 l -0.567035,0.988344 0.931291,0.956365 c 1.906332,1.957655 5.011342,4.531479 5.206862,4.316111 0.06228,-0.06861 0.340059,-0.593335 0.617267,-1.166047 z m 56.030931,14.408758 c 1.812937,-1.078986 3.584897,-2.461226 3.698608,-2.885148 0.09452,-0.352494 0.146666,-2.706919 0.08586,-3.878644 l -0.04994,-0.962141 -1.140831,0.898836 c -0.627455,0.494356 -1.827052,1.288089 -2.665781,1.763858 l -1.524969,0.865027 -0.02877,1.599411 c -0.01584,0.879671 -0.07505,2.042887 -0.131582,2.58492 -0.05653,0.542036 -0.0675,0.994985 -0.02433,1.006562 0.04314,0.01155 0.844927,-0.435135 1.781742,-0.992681 z m 5.296931,-0.441936 c 0.584535,-0.871344 0.730953,-1.202937 1.161226,-2.629742 0.270809,-0.897968 0.549429,-2.02913 0.619085,-2.513718 l 0.126887,-0.881017 -0.73879,1.150194 c -0.406337,0.632613 -1.096214,1.535858 -1.533062,2.007222 l -0.794268,0.857019 -0.126098,1.077216 c -0.06935,0.592458 -0.216704,1.582314 -0.327452,2.199681 l -0.201367,1.122478 0.572405,-0.696148 c 0.314826,-0.382882 0.873402,-1.144824 1.241276,-1.693223 z M 76.531543,79.29448 c 2.309673,-0.481213 6.355746,-1.973022 6.348197,-2.340615 -0.0024,-0.119451 -0.0084,-0.571184 -0.01308,-1.003838 -0.0077,-0.700093 -0.336996,-4.194361 -0.409449,-4.344306 -0.0157,-0.0325 -0.543001,0.154181 -1.171801,0.414798 -1.40304,0.581515 -2.884684,1.0588 -4.423482,1.424948 -0.641918,0.152736 -1.185158,0.344945 -1.2072,0.427118 -0.0221,0.08216 -0.01986,1.036288 0.0049,2.120252 0.02467,1.083954 0.02596,2.301022 0.0028,2.70458 -0.02319,0.403565 -0.01704,0.740484 0.01364,0.748716 0.03073,0.008 0.415704,-0.06001 0.855564,-0.151653 z m -27.817279,-10.957908 0.845069,-2.80101 -0.638126,-0.244429 c -0.350972,-0.13441 -1.280115,-0.482655 -2.064774,-0.773822 -0.784659,-0.291167 -2.188768,-0.868058 -3.12024,-1.281975 -0.931474,-0.413917 -1.737783,-0.727605 -1.791795,-0.697084 -0.163909,0.09262 -2.433631,5.066134 -2.410928,5.282929 0.02203,0.210295 0.993765,0.669329 4.057762,1.916799 1.782798,0.725852 4.040078,1.50564 4.179057,1.443686 0.05438,-0.02424 0.47918,-1.304536 0.943975,-2.845094 z m 5.804861,4.651279 c 0.822108,0.151543 1.76881,0.312047 2.103778,0.356685 l 0.60903,0.08116 0.165563,-0.955049 c 0.368881,-2.127941 0.746037,-4.78456 0.692438,-4.87745 -0.03135,-0.05437 -0.86639,-0.250485 -1.855596,-0.435802 -0.989204,-0.185319 -2.783414,-0.601118 -3.987128,-0.924001 l -2.18858,-0.587063 -0.594854,1.899294 c -0.327192,1.044614 -0.716481,2.351982 -0.865132,2.905251 l -0.27027,1.005956 2.347973,0.627846 c 1.291359,0.345422 3.020635,0.751735 3.842754,0.90324 z m 6.229795,0.898101 c 2.209037,0.217591 5.512827,0.353635 5.708449,0.235052 0.05593,-0.03388 0.114819,-0.734576 0.1309,-1.55707 0.01609,-0.822498 0.05967,-2.081486 0.09684,-2.797747 0.03718,-0.716265 0.04686,-1.371355 0.02158,-1.455766 -0.03183,-0.106017 -0.328969,-0.150841 -0.961263,-0.144987 -1.086454,0.01007 -3.69753,-0.179802 -5.635396,-0.409767 -0.764167,-0.09068 -1.401962,-0.1565 -1.417328,-0.146255 -0.01536,0.01029 -0.22222,1.260635 -0.459663,2.778675 -0.237457,1.518029 -0.448397,2.829119 -0.468777,2.913525 -0.05536,0.229669 0.512201,0.340779 2.984685,0.58434 z M 16.044686,59.26761 c 0.596607,-1.098163 1.139156,-2.099711 1.205668,-2.225663 0.08072,-0.152818 -0.04342,-0.664461 -0.373129,-1.538019 -0.271729,-0.719965 -0.632192,-1.956191 -0.801017,-2.747174 l -0.306964,-1.438152 -0.401845,0.594419 c -0.221013,0.326926 -0.748251,1.22439 -1.171632,1.994359 l -0.769785,1.399951 0.04962,0.837389 c 0.05894,0.994787 0.562338,2.987409 1.071531,4.241512 0.200827,0.494621 0.375866,0.894521 0.388978,0.888666 0.01314,-0.0059 0.511974,-0.90913 1.108579,-2.007288 z m 24.123324,5.78453 c 0.657127,-1.423433 1.214617,-2.635857 1.238876,-2.694265 0.02426,-0.05841 -0.900832,-0.640517 -2.055751,-1.293567 -1.154913,-0.65305 -2.54726,-1.493088 -3.094101,-1.86675 -0.546842,-0.373658 -1.097188,-0.734234 -1.222997,-0.80128 -0.24435,-0.130217 -0.268006,-0.09778 -2.282282,3.130556 -1.176285,1.885259 -1.133392,1.732793 -0.592263,2.10537 0.257668,0.177414 0.84029,0.581246 1.294712,0.897402 0.892571,0.620998 4.866085,2.907705 5.271511,3.033685 0.229311,0.07124 0.335482,-0.113597 1.442298,-2.51115 z M 22.258219,62.144939 c 0.113663,-0.23992 0.738789,-1.229742 1.389172,-2.199609 0.650385,-0.969871 1.199471,-1.826614 1.220197,-1.903879 0.02071,-0.07726 -0.434157,-0.740413 -1.010842,-1.473672 -0.576691,-0.73326 -1.398362,-1.942669 -1.825936,-2.68758 l -0.777409,-1.354382 -0.606908,0.736693 c -0.333802,0.405183 -1.011931,1.304539 -1.506951,1.998568 -0.495021,0.694029 -0.960688,1.343022 -1.034817,1.442202 -0.0956,0.127899 0.03826,0.501707 0.460361,1.285705 0.982324,1.824515 3.094678,4.709732 3.384476,4.622781 0.05609,-0.0168 0.194999,-0.226906 0.308657,-0.466827 z m 47.21912,11.904967 c 1.199492,-0.07805 2.957833,-0.259178 3.90742,-0.402495 l 1.72653,-0.260582 -0.02701,-0.550115 c -0.0386,-0.786782 -0.350051,-4.055617 -0.457128,-4.797812 l -0.09046,-0.627106 -0.941211,0.173135 c -1.148953,0.211345 -3.176976,0.417637 -4.951518,0.503675 -1.19527,0.05796 -1.331041,0.09269 -1.392179,0.356174 -0.139967,0.603238 -0.220279,5.675842 -0.09042,5.710754 0.07423,0.02018 1.116461,-0.02758 2.315953,-0.105632 z M 12.415198,56.49955 c 0.472021,-1.081705 0.520545,-1.263652 0.504254,-1.890919 -0.01,-0.381728 -0.01326,-0.898666 -0.0075,-1.148748 0.01029,-0.446937 0.0055,-0.442655 -0.282037,0.250977 -0.330186,0.7964 -1.170106,4.394408 -1.086228,4.653059 0.03198,0.09864 0.115747,-0.0049 0.201924,-0.249483 0.08099,-0.229916 0.382292,-0.956614 0.669542,-1.61489 z m 19.496598,5.488261 c 0.310879,-0.545704 1.006554,-1.659312 1.545945,-2.474679 0.539387,-0.815372 0.944795,-1.534303 0.900902,-1.597632 -0.04389,-0.06333 -0.422029,-0.374438 -0.840296,-0.691343 -1.018662,-0.771812 -1.962703,-1.610689 -3.154642,-2.803228 -0.544046,-0.544321 -1.016168,-0.996915 -1.049156,-1.005763 -0.103188,-0.02767 -1.00513,1.023608 -2.395663,2.792358 l -1.339014,1.703225 0.522178,0.567775 c 1.226352,1.33343 4.578458,4.276858 5.052881,4.436853 0.142866,0.04822 0.335429,-0.187794 0.756865,-0.927566 z m 55.848775,12.097504 0.981963,-0.826317 -0.03952,-0.511678 c -0.09554,-1.236504 -0.658435,-4.624237 -0.773472,-4.655092 -0.04329,-0.0116 -0.411581,0.257251 -0.818419,0.597473 -0.406842,0.340226 -1.511917,1.077244 -2.455729,1.637816 l -1.715999,1.019225 0.08681,0.831385 c 0.04775,0.457257 0.148212,1.722723 0.223246,2.812136 l 0.136426,1.980758 1.696372,-1.029697 c 0.932998,-0.566336 2.138251,-1.401538 2.678335,-1.856009 z m 2.27229,3.427479 c 0.878527,-1.058705 1.748902,-2.454555 2.09232,-3.355514 0.24318,-0.637976 0.287057,-1.01979 0.294482,-2.563823 0.0049,-0.997819 -0.0168,-1.914411 -0.04801,-2.036878 -0.06658,-0.261164 9.54e-4,-0.345814 -0.894641,1.121237 -0.339439,0.556021 -0.978232,1.400047 -1.419538,1.875625 l -0.80238,0.864673 0.04927,1.682658 c 0.02711,0.925464 0.03025,2.013904 0.007,2.418765 -0.02328,0.404862 -0.01517,0.743385 0.01799,0.752275 0.03311,0.0092 0.349732,-0.332667 0.703529,-0.759018 z M 76.896668,72.934968 c 1.424567,-0.343418 3.407185,-0.989393 4.5945,-1.496985 0.729627,-0.311919 0.924332,-0.449944 0.888275,-0.629687 -0.905211,-4.513118 -1.11678,-5.421658 -1.259084,-5.406757 -0.09003,0.0094 -0.550335,0.17438 -1.022902,0.36656 -1.291955,0.525404 -2.61704,0.95769 -3.893892,1.270307 -0.798896,0.195601 -1.144219,0.340768 -1.138969,0.478811 0.03182,0.836739 0.577205,5.645125 0.642248,5.662571 0.04538,0.01217 0.580775,-0.098 1.189824,-0.24482 z M 50.394903,62.958703 c 0.354915,-1.145019 0.775869,-2.437012 0.935454,-2.871096 l 0.290164,-0.789243 -1.36266,-0.459812 c -0.749465,-0.252896 -2.047823,-0.75641 -2.885242,-1.118917 -0.837418,-0.362509 -1.734409,-0.750151 -1.99331,-0.861426 l -0.470733,-0.202323 -1.166564,2.226976 c -0.641608,1.224834 -1.230396,2.436555 -1.308414,2.692708 l -0.141876,0.465737 0.751919,0.364503 c 1.179245,0.571662 5.0477,2.116293 6.211101,2.480027 l 0.494849,0.154722 z m 6.200724,3.781758 c 0.881031,0.161273 1.61509,0.284645 1.631243,0.274161 0.03503,-0.02273 0.737811,-4.839284 0.808121,-5.538223 0.03741,-0.371873 -4.77e-4,-0.480912 -0.161263,-0.464076 -0.314916,0.03298 -6.081535,-1.275969 -6.439966,-1.461787 -0.30398,-0.157587 -0.315794,-0.146754 -0.574246,0.526482 -0.145135,0.378059 -0.569454,1.678963 -0.942921,2.890898 l -0.679034,2.203523 2.378092,0.637897 c 1.307957,0.350845 3.098947,0.769852 3.979978,0.931124 z M 18.346839,55.53865 c 0.293761,-0.442456 1.003689,-1.394584 1.577614,-2.115842 0.573929,-0.721261 1.052433,-1.344652 1.06334,-1.385316 0.01086,-0.04066 -0.128044,-0.417138 -0.308777,-0.836611 -0.396455,-0.920143 -1.012622,-3.126722 -1.066602,-3.819643 -0.02145,-0.275366 -0.08391,-0.512714 -0.138813,-0.527439 -0.102951,-0.02762 -1.599732,1.689557 -2.625618,3.012227 -0.670962,0.865069 -0.682505,0.963909 -0.320021,2.74067 0.226981,1.112561 1.053704,3.674435 1.198266,3.713211 0.04757,0.01275 0.326851,-0.338802 0.620611,-0.781257 z M 60.3602,67.294142 c 0.630596,0.06143 1.545546,0.15925 2.03323,0.217383 0.732276,0.08728 3.60379,0.188821 4.163625,0.147224 0.138487,-0.01029 0.142043,-3.625861 0.0052,-5.363403 -0.05046,-0.64101 0.04634,-0.611745 -2.501424,-0.756539 -1.026844,-0.05835 -2.425103,-0.171336 -3.107234,-0.251062 -0.682142,-0.07973 -1.275315,-0.124725 -1.318171,-0.1 -0.04286,0.02472 -0.196529,0.917729 -0.341467,1.984457 -0.144949,1.066722 -0.339611,2.374984 -0.432578,2.907247 -0.196242,1.123502 -0.299946,1.039469 1.498746,1.214691 z M 13.860741,53.538273 c 0.114013,-0.24896 0.584917,-1.021339 1.046465,-1.716402 l 0.839173,-1.263748 0.03164,-1.265115 c 0.01741,-0.695813 0.08116,-1.634193 0.141665,-2.085293 l 0.110011,-0.820179 -0.83434,1.410215 c -0.77905,1.316751 -0.865619,1.527444 -1.306272,3.179084 -0.677439,2.538398 -0.693585,4.014097 -0.02835,2.561438 z m 12.289239,2.851554 c 0.438382,-0.583359 1.111202,-1.417572 1.495156,-1.853809 0.383948,-0.436234 0.835543,-0.971186 1.003543,-1.188782 l 0.305449,-0.395629 -0.872013,-1.10679 c -0.479606,-0.608734 -1.239578,-1.708852 -1.688816,-2.444705 -0.449242,-0.735853 -0.841321,-1.321577 -0.871285,-1.301612 -0.217509,0.144923 -1.754434,1.687843 -2.750318,2.761043 l -1.202025,1.295341 0.919862,1.537872 c 0.912923,1.526273 2.472715,3.653157 2.729524,3.721895 0.07362,0.01973 0.492535,-0.441467 0.930923,-1.024824 z m 16.897986,2.768039 c 0.724545,-1.405351 1.329135,-2.610523 1.343528,-2.678164 0.0142,-0.06769 -0.431011,-0.348228 -0.989795,-0.623529 -0.558787,-0.275305 -1.834702,-1.02671 -2.835366,-1.66979 -1.528031,-0.981994 -1.844519,-1.145625 -1.976281,-1.021777 -0.187807,0.17652 -1.934389,2.50854 -2.822809,3.768984 l -0.633433,0.898682 0.955506,0.666763 c 1.363461,0.951443 4.75428,2.931716 5.338157,3.117538 0.298826,0.09513 0.321839,0.0602 1.620493,-2.458707 z m 25.598509,8.453487 c 1.395171,-0.05663 4.295388,-0.37008 5.194368,-0.561384 0.295541,-0.06289 0.552573,-0.171117 0.571188,-0.240501 0.08857,-0.330202 -0.899957,-5.721879 -1.056777,-5.763944 -0.04696,-0.0126 -0.853937,0.08939 -1.793249,0.226638 -0.939326,0.137249 -2.325096,0.27184 -3.079494,0.299089 -0.754408,0.02724 -1.393673,0.06115 -1.420602,0.07534 -0.02692,0.0142 -0.01665,0.672428 0.02285,1.46275 0.03952,0.790322 0.07643,2.129376 0.08208,2.975678 0.0057,0.846301 0.04471,1.547967 0.08677,1.559256 0.04208,0.01131 0.66886,-0.0034 1.392852,-0.03292 z m 22.203368,3.159679 c 0.363322,-0.549615 0.824342,-1.344651 1.024482,-1.766745 0.355906,-0.750591 0.36086,-0.790894 0.225417,-1.834995 -0.162676,-1.254009 -0.73176,-3.755195 -0.818509,-3.597445 -0.655595,1.192158 -1.449137,2.376665 -2.076459,3.099501 l -0.78606,0.905743 0.237614,1.334644 c 0.13069,0.734056 0.304423,1.902158 0.38608,2.595789 l 0.148461,1.261146 0.499198,-0.49917 c 0.274555,-0.274545 0.796454,-0.94886 1.159776,-1.498468 z m -6.215093,-0.95336 c 1.525059,-0.931061 2.999674,-2.106403 3.096735,-2.468256 0.03522,-0.131633 -0.04499,-0.629233 -0.178447,-1.105817 -0.476102,-1.700227 -1.243027,-4.076086 -1.322657,-4.097446 -0.04452,-0.01196 -0.438242,0.272498 -0.874884,0.6321 -0.436648,0.359605 -1.435695,1.040989 -2.220109,1.514189 l -1.426203,0.860365 0.563262,2.792292 c 0.459658,2.278723 0.603599,2.784087 0.782633,2.747663 0.12066,-0.02453 0.831508,-0.418333 1.57967,-0.87509 z M 35.893705,55.931601 c 0.615516,-0.859424 1.415283,-1.942646 1.777253,-2.407166 L 38.329092,52.679859 37.81866,52.27363 c -1.333639,-1.061369 -2.156926,-1.779881 -3.010194,-2.627097 -0.781515,-0.775974 -0.961001,-0.902299 -1.132251,-0.796899 -0.24115,0.148423 -2.697937,2.60778 -3.48996,3.493606 l -0.553612,0.619177 0.84246,0.872496 c 1.259767,1.304679 3.801894,3.512784 4.168386,3.620681 0.07208,0.02131 0.634701,-0.664569 1.250216,-1.523993 z m 42.778793,9.858371 c 0.870944,-0.29853 1.772806,-0.62944 2.004146,-0.735354 l 0.420609,-0.192575 -0.386739,-1.333129 c -0.406379,-1.400802 -1.39686,-4.283868 -1.479343,-4.305993 -0.02658,-0.0071 -0.637772,0.209418 -1.358323,0.481189 -0.720556,0.271768 -1.890481,0.641722 -2.599832,0.82212 -0.709356,0.180398 -1.310746,0.338232 -1.336415,0.350743 -0.02567,0.01251 0.114389,0.822214 0.311241,1.799343 0.196857,0.977127 0.442098,2.312779 0.544977,2.968113 l 0.18705,1.191517 1.05455,-0.251595 c 0.580007,-0.138377 1.767141,-0.495846 2.638079,-0.794379 z m 14.54695,4.524049 c 0.04557,-0.46528 0.116955,-1.57213 0.15862,-2.45966 l 0.07577,-1.613693 -0.344568,1.018706 c -0.261832,0.77413 -0.331899,1.163331 -0.291901,1.621076 0.02896,0.331303 0.0596,1.104244 0.06809,1.717646 0.01727,1.249649 0.1989,1.095186 0.333989,-0.284075 z M 24.171603,48.752033 c 0.619362,-0.597335 1.136749,-1.125706 1.149746,-1.174157 0.01301,-0.04844 -0.169456,-0.590397 -0.405442,-1.204327 -0.235991,-0.613928 -0.529643,-1.65736 -0.652559,-2.318734 -0.12292,-0.661374 -0.251455,-1.207882 -0.285638,-1.214463 -0.243457,-0.04687 -3.859811,3.180814 -3.952973,3.528122 -0.142035,0.529501 0.457222,3.082941 1.042095,4.440396 l 0.334129,0.775495 0.822264,-0.873133 c 0.45225,-0.480222 1.329018,-1.361861 1.948378,-1.959199 z m -5.485409,-1.815014 0.793357,-0.865329 -0.0016,-1.0502 c -8.59e-4,-0.577611 0.101186,-1.585258 0.226757,-2.239213 l 0.228312,-1.189013 -1.046402,1.136671 c -0.575521,0.625171 -1.251945,1.447334 -1.503171,1.827032 -0.681872,1.030581 -1.141452,2.926303 -1.13974,4.701346 l 5.25e-4,0.559952 0.824274,-1.007957 c 0.453356,-0.554376 1.181288,-1.397356 1.617634,-1.873289 z m 38.51758,13.290725 c 1.002371,0.188842 1.853549,0.326821 1.891491,0.306618 0.03793,-0.02021 0.158773,-0.878209 0.268504,-1.906682 0.109728,-1.028473 0.258616,-2.318037 0.330868,-2.865699 l 0.131376,-0.995745 -1.0088,-0.188128 C 58.262378,54.474637 56.953332,54.160968 55.908232,53.88106 L 54.00804,53.372142 53.202381,55.80314 c -0.443118,1.337047 -0.853212,2.609421 -0.911329,2.827497 l -0.105847,0.39645 1.597932,0.42863 c 0.878862,0.235743 2.418062,0.583139 3.420448,0.77198 z M 52.03958,57.778851 c 0.189908,-0.542208 0.59589,-1.773169 0.90222,-2.735462 l 0.556964,-1.749622 -1.645923,-0.612186 c -0.905258,-0.336703 -2.066504,-0.808279 -2.580539,-1.047945 -0.514039,-0.239667 -1.001081,-0.453666 -1.082309,-0.475552 -0.160893,-0.0433 -0.17117,-0.02705 -1.880126,2.976764 l -1.169899,2.056325 1.588873,0.708224 c 2.129558,0.949231 3.075155,1.32197 4.103505,1.617542 l 0.861989,0.247754 z M 30.453346,51.357043 c 0.558139,-0.599367 1.442889,-1.504347 1.966104,-2.01107 0.523212,-0.506725 0.978891,-0.951386 1.012617,-0.988138 0.03371,-0.03675 -0.255687,-0.47256 -0.643138,-0.968466 -0.387451,-0.495906 -1.0469,-1.455691 -1.465443,-2.132855 -0.753445,-1.219009 -0.763666,-1.229198 -1.031445,-1.028062 -2.141759,1.60871 -4.167953,3.26688 -4.206148,3.442166 -0.09761,0.447893 2.826896,4.784696 3.222211,4.778291 0.07174,-0.0011 0.587098,-0.492503 1.145242,-1.091866 z m 30.981141,9.495489 c 1.672279,0.184499 4.612609,0.357945 4.912846,0.289801 0.116774,-0.0265 0.133119,-0.45875 0.05696,-1.503803 -0.179182,-2.458047 -0.343123,-4.138924 -0.416349,-4.268814 -0.03827,-0.06789 -0.873873,-0.160302 -1.856886,-0.20536 -0.983019,-0.04506 -2.261362,-0.140567 -2.840769,-0.212242 -0.863995,-0.106877 -1.052926,-0.09266 -1.050473,0.0791 0.0015,0.115185 -0.129578,1.423881 -0.291601,2.908225 -0.162022,1.484344 -0.265262,2.706051 -0.22943,2.714902 0.03589,0.0088 0.807905,0.09804 1.715699,0.198192 z m -16.167,-5.870632 c 0.304269,-0.547478 0.944837,-1.680561 1.423484,-2.51796 0.478641,-0.8374 0.83747,-1.56849 0.79739,-1.624646 -0.04008,-0.05616 -0.587229,-0.377576 -1.215884,-0.714264 -0.628651,-0.336687 -1.638436,-0.941554 -2.24396,-1.344144 -0.605527,-0.402592 -1.113128,-0.720987 -1.128008,-0.707544 -0.4385,0.396125 -2.43949,2.711839 -3.618799,4.187961 l -0.276983,0.346702 1.590531,1.01549 c 1.608506,1.026965 3.592137,2.183834 3.933207,2.293875 0.135418,0.04369 0.335812,-0.209976 0.739022,-0.93547 z m 23.647868,6.060111 c 1.943365,-0.13094 4.294182,-0.470916 4.33607,-0.627082 0.03365,-0.125198 -0.694687,-2.992799 -1.129588,-4.447751 -0.208845,-0.698677 -0.443659,-1.243035 -0.530714,-1.230309 -1.356719,0.19836 -2.981964,0.376747 -3.871461,0.424931 -0.613087,0.03322 -1.131254,0.06676 -1.151497,0.07456 -0.02023,0.0078 0.05445,1.063029 0.165992,2.344972 0.111526,1.281942 0.204116,2.610577 0.205733,2.95252 0.0015,0.341944 0.01594,0.625197 0.03178,0.629452 0.01584,0.0043 0.890514,-0.05032 1.943679,-0.121285 z m 20.123585,5.092861 c 0.753076,-0.890785 1.803812,-2.586969 1.957517,-3.160006 0.120578,-0.449474 -0.06802,-1.1056 -0.967872,-3.367483 -0.593468,-1.491745 -0.792149,-1.76707 -0.923034,-1.279119 -0.0952,0.354859 -0.935708,1.583295 -1.733612,2.533696 l -0.746472,0.88915 0.460459,1.321753 c 0.253253,0.726964 0.605838,1.874014 0.783517,2.548998 0.177683,0.674984 0.366558,1.240363 0.419718,1.256396 0.05316,0.01604 0.39057,-0.318488 0.749779,-0.743385 z m -6.205917,-2.18797 c 1.29358,-0.763247 3.176717,-2.238889 3.152485,-2.470312 -0.04936,-0.471352 -2.077341,-4.92048 -2.31182,-5.071831 -0.06128,-0.03955 -0.342092,0.14092 -0.624019,0.401065 -0.281932,0.260141 -1.130953,0.848556 -1.886721,1.307585 -0.755777,0.459026 -1.381681,0.862745 -1.39091,0.897151 -0.0094,0.03436 0.290283,0.960273 0.665578,2.057481 0.375295,1.097209 0.761227,2.32491 0.857615,2.728222 0.09639,0.403314 0.233263,0.748857 0.30416,0.767875 0.0709,0.01902 0.626033,-0.258737 1.233632,-0.617236 z m 10.255291,0.967663 c 0.148676,-1.417149 0.07164,-2.803914 -0.239757,-4.315277 l -0.280467,-1.361294 -0.425983,1.764981 -0.425977,1.764981 0.43315,2.142367 0.43315,2.142369 0.203653,-0.598978 c 0.111968,-0.32945 0.248246,-1.021999 0.302265,-1.539141 z M 40.535932,50.014436 c 1.041338,-1.231474 1.876042,-2.259932 1.854901,-2.285462 -0.02112,-0.02552 -0.610388,-0.545742 -1.309446,-1.156029 -0.699059,-0.610288 -1.493542,-1.343624 -1.765519,-1.629638 -0.287683,-0.30253 -0.540964,-0.4793 -0.605595,-0.422657 -0.0611,0.05356 -0.836514,0.69247 -1.723145,1.419817 -1.677402,1.376057 -2.775964,2.367558 -2.716218,2.451501 0.395915,0.55628 3.948872,3.721986 4.311637,3.841698 0.03305,0.01086 0.91205,-0.987754 1.953385,-2.21923 z m 36.351082,9.517583 c 0.830893,-0.283247 1.665856,-0.583815 1.855484,-0.66793 l 0.344765,-0.152935 -0.618612,-1.46533 c -0.340236,-0.80593 -0.899256,-2.048687 -1.242265,-2.76168 l -0.623651,-1.296351 -1.113173,0.420141 c -0.612247,0.231079 -1.602126,0.551116 -2.199732,0.711195 l -1.086551,0.291053 0.331599,1.093257 c 0.182375,0.601288 0.541998,1.898634 0.799154,2.88299 l 0.467552,1.789735 0.787362,-0.164576 c 0.433046,-0.09052 1.467176,-0.396323 2.298068,-0.679569 z M 27.386919,45.90451 c 0.794012,-0.649777 1.795378,-1.437865 2.225256,-1.751306 l 0.781596,-0.569898 -0.385379,-1.025912 c -0.211956,-0.564253 -0.464225,-1.499529 -0.560588,-2.07839 -0.09637,-0.578863 -0.234335,-1.051351 -0.3066,-1.049974 -0.14535,0.0027 -3.399948,2.054529 -4.190706,2.641898 l -0.500301,0.371621 0.19074,1.061469 c 0.223133,1.241733 1.045904,3.749054 1.197761,3.650063 0.05753,-0.03748 0.754207,-0.599797 1.548221,-1.249571 z m -4.703505,-2.6996 c 1.098718,-0.890666 1.215379,-1.023841 1.251767,-1.428965 0.143942,-1.602516 0.29848,-2.81016 0.42049,-3.285962 l 0.141163,-0.55038 -0.631777,0.418777 c -0.347477,0.230329 -1.196632,0.883388 -1.887004,1.451247 l -1.255225,1.032464 -0.337519,1.258277 c -0.290107,1.081528 -0.528292,2.990455 -0.418701,3.35569 0.01907,0.06352 0.365524,-0.19601 0.769921,-0.576727 0.404401,-0.380714 1.280509,-1.134202 1.94691,-1.674414 z m 14.921415,1.598464 0.920884,-0.719092 -0.695514,-0.901957 c -0.382529,-0.496076 -0.921553,-1.282249 -1.197834,-1.74705 l -0.502325,-0.845094 -1.870806,1.105702 c -1.028945,0.608135 -2.175378,1.30431 -2.547631,1.547053 -0.671821,0.438095 -0.675633,0.443744 -0.51639,0.764963 0.584608,1.179243 1.434904,2.464043 2.263137,3.419604 l 0.443071,0.511185 1.391263,-1.208111 c 0.765193,-0.664461 1.805657,-1.531703 2.312145,-1.927203 z m 19.940955,9.003432 c 1.208234,0.265087 2.225767,0.465261 2.26118,0.444826 0.0584,-0.03371 0.365962,-3.306192 0.459725,-4.891796 l 0.03832,-0.64807 -0.904576,-0.147943 c -0.497519,-0.08136 -1.495407,-0.302788 -2.217531,-0.492045 l -1.312955,-0.3441 -0.147273,0.516061 c -0.08106,0.283815 -0.468028,1.448594 -0.860039,2.588359 -0.392021,1.139766 -0.695312,2.102549 -0.673976,2.139517 0.0518,0.08979 0.739542,0.260893 3.357136,0.835197 z M 54.14152,51.414444 c 0.245908,-0.742876 0.641299,-1.930959 0.878617,-2.640191 l 0.43149,-1.289512 -0.718991,-0.195185 c -0.395437,-0.107351 -1.218749,-0.415392 -1.829582,-0.684507 -0.610833,-0.269116 -1.223337,-0.520595 -1.36112,-0.558843 -0.284086,-0.07887 -0.360648,0.0241 -2.120611,2.851826 l -1.093598,1.757082 1.056327,0.494247 c 1.211661,0.566927 2.649846,1.127792 3.632146,1.416468 l 0.678189,0.199309 z m 8.20305,3.149118 c 1.905427,0.156563 3.310978,0.208636 3.476345,0.128794 0.08028,-0.03876 0.0885,-0.448129 0.0198,-0.984836 -0.177694,-1.387817 -0.644019,-4.313747 -0.709118,-4.44936 -0.03159,-0.06575 -0.458823,-0.136892 -0.949456,-0.158091 -0.490628,-0.02119 -1.429253,-0.09526 -2.085826,-0.164592 -0.656583,-0.06933 -1.222814,-0.109297 -1.258292,-0.08882 -0.0355,0.02048 -0.125479,0.928592 -0.199974,2.018034 -0.0745,1.089444 -0.182408,2.302204 -0.239806,2.695021 -0.12459,0.852788 -0.168636,0.830075 1.946333,1.003855 z m 24.748948,5.9004 c 0.781986,-0.951808 1.686304,-2.383383 1.819695,-2.880673 0.09485,-0.353596 -0.04213,-0.671455 -1.111255,-2.578958 -0.670693,-1.196613 -1.271988,-2.189624 -1.336219,-2.206698 -0.06421,-0.01708 -0.398301,0.409967 -0.742382,0.948977 -0.344082,0.53901 -0.869178,1.255797 -1.166877,1.592856 l -0.541263,0.612842 0.519074,1.010922 c 0.285492,0.556007 0.825348,1.725441 1.199688,2.598744 0.374341,0.873303 0.701902,1.593532 0.727914,1.60051 0.02601,0.007 0.310244,-0.307358 0.631625,-0.698522 z M 48.67262,49.163142 c 0.417631,-0.696814 1.086412,-1.752119 1.486174,-2.345128 l 0.726837,-1.078197 -0.47145,-0.262784 c -0.2593,-0.144532 -1.071899,-0.629902 -1.805774,-1.078601 -0.73388,-0.4487 -1.348843,-0.802931 -1.366584,-0.787184 -0.01776,0.01574 -0.477645,0.467997 -1.022011,1.004995 -1.792663,1.768403 -2.828316,2.847525 -2.865363,2.985636 -0.05508,0.205317 3.616089,2.513915 4.428175,2.784635 0.07186,0.02397 0.47236,-0.52656 0.889996,-1.223372 z m 43.316447,9.849507 c 0.05567,-0.652818 0.03488,-1.474738 -0.04624,-1.826489 -0.166521,-0.722199 -0.712023,-2.109533 -1.219893,-3.102478 -0.270473,-0.528812 -0.339806,-0.601246 -0.336675,-0.351753 0.0024,0.172809 -0.165525,1.086244 -0.372642,2.029865 -0.356111,1.622369 -0.364501,1.740966 -0.154459,2.180831 0.328154,0.687211 1.308809,3.189559 1.408424,3.593879 0.08082,0.32804 0.102917,0.297166 0.353239,-0.493492 0.146862,-0.463883 0.312567,-1.37755 0.368256,-2.030363 z M 19.583069,41.304214 c 0.585597,-0.572481 1.49524,-1.95058 1.398352,-2.118496 -0.03178,-0.05504 -1.941925,2.289341 -2.163638,2.655476 -0.239441,0.395403 -0.05882,0.268654 0.765286,-0.53698 z M 80.765383,57.81276 c 0.57188,-0.345254 1.392718,-0.918395 1.824075,-1.273645 l 0.784294,-0.645908 -0.152093,-0.408139 c -0.18358,-0.492651 -2.698554,-4.463619 -2.890239,-4.563499 -0.07447,-0.0388 -0.327747,0.09821 -0.562818,0.304485 -0.235071,0.206275 -0.949466,0.694124 -1.587548,1.084105 l -1.160138,0.709063 0.344979,0.643004 c 0.502754,0.93708 1.115454,2.276456 1.633249,3.570316 0.249802,0.624207 0.515447,1.151353 0.590319,1.171438 0.07487,0.02008 0.604034,-0.245967 1.17592,-0.59122 z M 67.608184,54.680213 c 2.255855,-0.156051 3.883673,-0.376196 3.925151,-0.530834 0.0262,-0.09683 -1.045077,-3.181284 -1.538559,-4.430664 -0.274387,-0.694666 -0.423053,-0.917438 -0.618999,-0.927541 -0.236164,-0.01217 -3.543466,0.30805 -3.677526,0.356073 -0.03197,0.01144 0.06983,0.864847 0.226206,1.896435 0.156382,1.03159 0.337419,2.286924 0.402309,2.789632 0.0649,0.502711 0.1269,0.916408 0.137795,0.91933 0.01086,0.0029 0.525525,-0.02967 1.143623,-0.07243 z M 44.044298,46.124227 c 0.460616,-0.487567 1.282868,-1.32269 1.827221,-1.85583 l 0.989736,-0.969346 -1.335969,-1.232265 -1.335974,-1.232264 -1.139914,0.691835 c -0.626947,0.380511 -1.72933,1.118406 -2.449735,1.639767 l -1.309822,0.947932 0.226665,0.312556 c 0.262536,0.36201 2.364535,2.253893 2.93526,2.641848 0.452099,0.307319 0.356735,0.363861 1.592532,-0.944233 z m -16.422294,-6.365922 1.58023,-0.948695 -0.02394,-0.594666 c -0.01317,-0.327069 0.0894,-1.169501 0.227919,-1.872074 l 0.251861,-1.277406 -1.356655,0.671649 c -0.746161,0.369406 -1.741723,0.901054 -2.212369,1.18144 l -0.855713,0.509792 -0.377505,1.429637 c -0.207472,0.786344 -0.392735,1.773967 -0.411369,2.194806 l -0.03389,0.765161 0.815588,-0.555478 c 0.448573,-0.305513 1.526692,-0.982391 2.39582,-1.504172 z m 3.636681,3.230443 c 0.193554,-0.145798 1.323235,-0.859592 2.510408,-1.58621 l 2.158495,-1.321122 -0.197877,-0.440586 c -0.108834,-0.242323 -0.326482,-0.975092 -0.483663,-1.628376 -0.157184,-0.653286 -0.295748,-1.211587 -0.307922,-1.240669 -0.04983,-0.119035 -3.052588,1.194268 -4.531864,1.982081 l -0.717985,0.382377 0.144193,0.92096 c 0.143014,0.913406 0.834874,3.125057 0.992324,3.172126 0.04511,0.01347 0.240338,-0.09478 0.433891,-0.240581 z m 41.679624,10.934224 c 0.789643,-0.164215 3.18714,-0.976583 3.358701,-1.138061 0.105904,-0.09968 -1.954912,-3.820805 -2.619407,-4.729746 l -0.344463,-0.471179 -1.400711,0.46546 c -0.770394,0.256001 -1.510529,0.470432 -1.64474,0.47651 -0.212601,0.0096 -0.186393,0.157082 0.203494,1.144852 0.246138,0.623588 0.692464,1.855785 0.991832,2.738212 0.299373,0.882429 0.586783,1.617854 0.638689,1.634281 0.05191,0.01646 0.419378,-0.03772 0.816605,-0.120329 z M 23.878146,37.757494 c 0.862609,-0.602007 1.009063,-0.762557 1.394299,-1.528519 0.236745,-0.470723 0.624274,-1.124225 0.861168,-1.452227 l 0.430722,-0.596365 -0.702756,0.461607 c -1.114756,0.732227 -2.819616,2.402869 -3.59409,3.521954 -0.389901,0.563391 -0.731848,1.109861 -0.759883,1.214377 -0.02805,0.104512 0.277001,-0.06607 0.677859,-0.379069 0.400857,-0.313004 1.162563,-0.871795 1.692681,-1.241758 z m 16.46421,5.001809 c 0.751213,-0.527875 1.84184,-1.271549 2.423624,-1.652607 l 1.057781,-0.692834 -0.686872,-0.933602 c -0.377776,-0.51348 -0.759727,-1.079736 -0.848781,-1.25835 -0.08905,-0.178612 -0.212597,-0.338348 -0.274543,-0.354964 -0.251338,-0.06741 -5.293928,2.305754 -5.350938,2.51829 -0.06624,0.246926 1.901831,3.208532 2.190494,3.296317 0.06787,0.02062 0.738025,-0.394373 1.489235,-0.92225 z m 44.525929,11.395286 c 0.895891,-1.214353 1.188245,-1.858288 1.006486,-2.216879 -0.184222,-0.363449 -1.487284,-2.073837 -2.506541,-3.29005 l -0.796253,-0.950119 -0.321792,0.601464 c -0.176992,0.330804 -0.606243,0.945905 -0.953904,1.366888 l -0.632102,0.765428 0.98527,1.512062 c 0.541894,0.831632 1.243757,1.966587 1.559699,2.522122 0.664948,1.16921 0.5515,1.19047 1.659137,-0.310916 z m 4.758077,1.0919 c 0.451608,-2.203855 0.408165,-2.547109 -0.518363,-4.0954 -0.915561,-1.529969 -1.669931,-2.603723 -1.783304,-2.538312 -0.04328,0.02496 -0.08988,0.329592 -0.103369,0.677028 -0.0136,0.347402 -0.149234,1.113599 -0.301416,1.702658 l -0.276726,1.07101 1.25051,2.207436 c 0.687787,1.21409 1.297576,2.229975 1.355097,2.257522 0.06069,0.02906 0.219133,-0.508933 0.377567,-1.281943 z M 55.72641,46.806801 c 0.0504,-0.184197 0.422552,-1.240597 0.827233,-2.347499 0.404676,-1.106901 0.725155,-2.030226 0.712176,-2.051831 -0.01919,-0.03189 -1.535377,-0.657436 -2.481793,-1.023909 -0.169581,-0.06566 -0.370318,0.128426 -0.931709,0.900853 -1.076022,1.480531 -2.21789,3.163975 -2.184894,3.221162 0.03904,0.06766 2.336242,1.050302 3.01474,1.289567 0.295575,0.104229 0.630872,0.224858 0.745103,0.268061 0.152182,0.05755 0.232137,-0.01097 0.299144,-0.256404 z m 4.538185,1.40869 c 0.09266,-0.05347 0.239809,-1.846534 0.301545,-3.674589 l 0.046,-1.362181 -1.380579,-0.321681 c -0.759323,-0.176925 -1.406377,-0.30791 -1.437905,-0.291073 -0.06426,0.03431 -1.384194,3.686827 -1.564641,4.329633 l -0.115944,0.413084 2.038057,0.475158 c 1.120937,0.261337 2.071992,0.45558 2.113466,0.431651 z m 2.949168,0.355275 c 0.591067,0.0504 1.244888,0.06742 1.452926,0.03781 l 0.378263,-0.05383 -0.532177,-2.495734 c -0.432067,-2.026235 -0.578838,-2.505145 -0.780201,-2.545762 -0.338727,-0.06833 -2.519033,-0.243082 -2.58169,-0.206927 -0.02767,0.01599 -0.09089,0.925086 -0.140385,2.020217 -0.0495,1.095131 -0.110011,2.211393 -0.134484,2.480582 l -0.04447,0.489436 0.653777,0.09129 c 0.359581,0.05021 1.137391,0.132521 1.728459,0.18292 z m 14.59914,3.441529 c 1.141929,-0.705589 2.228827,-1.588544 2.131398,-1.73146 -0.361848,-0.530803 -1.910968,-2.473686 -2.72428,-3.416756 l -0.991817,-1.15004 -0.339811,0.280033 c -0.186894,0.154019 -0.725538,0.51752 -1.196983,0.807785 l -0.857158,0.527755 1.469251,2.537356 c 0.808093,1.395547 1.52903,2.556824 1.602089,2.580613 0.07306,0.02379 0.481351,-0.172086 0.907311,-0.435286 z M 51.506345,44.792446 c 0.150806,-0.247135 0.668048,-0.990759 1.149422,-1.6525 1.44488,-1.986257 1.471409,-2.029011 1.31768,-2.123448 -0.07535,-0.04629 -0.5893,-0.363958 -1.14212,-0.705936 l -1.005122,-0.621776 -0.372276,0.272607 c -0.66745,0.488756 -3.60685,3.075182 -3.64145,3.204167 -0.03569,0.13309 0.169418,0.280197 1.863724,1.336629 1.345704,0.839074 1.482045,0.860697 1.830142,0.290257 z m 17.230678,3.577893 c 0.316175,-0.0396 0.582861,-0.101752 0.59262,-0.138136 0.04695,-0.17531 -2.146965,-4.815807 -2.340693,-4.950817 -0.07659,-0.05338 -2.281614,0.09231 -2.490921,0.164567 -0.02238,0.0077 0.211579,1.173151 0.519914,2.58983 l 0.560609,2.57578 1.291797,-0.08462 c 0.710486,-0.04654 1.550488,-0.117012 1.866674,-0.156605 z M 30.829601,37.985328 c 0.576311,-0.284715 1.734821,-0.804355 2.57447,-1.154757 1.406604,-0.586997 1.526554,-0.664002 1.52553,-0.979367 -6.21e-4,-0.188252 0.0794,-0.886693 0.177792,-1.55209 l 0.178898,-1.209815 -1.503284,0.462399 c -0.826802,0.25432 -1.94365,0.635037 -2.481883,0.846039 -1.067114,0.41834 -1.062442,0.412107 -1.391813,1.856391 -0.177456,0.77815 -0.309146,2.205429 -0.205766,2.230157 0.04305,0.01029 0.549744,-0.214241 1.126056,-0.498957 z M 51.01144,39.7206 51.434447,39.394246 50.540813,38.59236 49.647174,37.790472 48.685637,38.264986 c -1.430576,0.705983 -4.056336,2.147579 -4.081324,2.240733 -0.02255,0.08411 2.219938,2.129415 2.519293,2.297764 0.111956,0.06297 0.72469,-0.385823 1.816879,-1.330763 0.906371,-0.784173 1.838299,-1.572627 2.070955,-1.75212 z M 37.438043,39.369082 c 0.556351,-0.290769 1.761102,-0.855929 2.677231,-1.255909 0.916128,-0.399981 1.672585,-0.752956 1.681016,-0.784387 0.0085,-0.03143 -0.08749,-0.347293 -0.213161,-0.701915 -0.125669,-0.354622 -0.271678,-0.92226 -0.324466,-1.261417 l -0.09597,-0.616649 -0.658524,0.174556 c -1.398837,0.370789 -4.094995,1.213178 -4.57501,1.429422 l -0.503397,0.226771 0.152328,0.748732 c 0.165799,0.814939 0.695877,2.52855 0.78998,2.553792 0.03212,0.0086 0.513635,-0.222226 1.069979,-0.512996 z m 53.895834,14.43997 c -0.258205,-0.876437 -1.101549,-3.092782 -1.132676,-2.976732 -0.09752,0.363479 0.207976,1.439016 0.701091,2.468464 0.32591,0.680386 0.605742,1.240751 0.621838,1.245252 0.01613,0.0044 -0.06951,-0.327138 -0.190253,-0.736984 z M 28.81093,34.943185 c 0.671581,-0.30805 1.142771,-0.610284 1.23946,-0.795027 0.445113,-0.85047 0.704614,-1.270929 1.171207,-1.897662 0.281975,-0.378752 0.497227,-0.715424 0.478335,-0.74816 -0.04816,-0.08348 -1.943904,0.748416 -2.836258,1.244618 -0.798027,0.443741 -1.635265,1.300496 -2.52966,2.588611 -0.881656,1.269764 -0.836218,1.358067 0.354399,0.688732 0.571478,-0.321273 1.526615,-0.807774 2.122517,-1.081112 z m 42.406411,12.850962 c 0.623442,-0.191119 1.300992,-0.42703 1.505686,-0.524246 L 73.0952,47.09315 72.811913,46.694866 C 72.65611,46.47581 72.3371,46.023784 72.103002,45.690361 71.868905,45.35694 71.206123,44.476242 70.630157,43.73326 l -1.04721,-1.35088 -0.823181,0.282767 c -0.452748,0.155521 -0.92761,0.308436 -1.055237,0.339811 -0.195263,0.048 -0.09179,0.342701 0.652799,1.858757 0.486678,0.990942 1.014617,2.117867 1.173208,2.504282 0.158592,0.386415 0.347958,0.718561 0.420815,0.738105 0.07287,0.01955 0.642558,-0.120835 1.26599,-0.311955 z m 9.983922,1.21864 c 0.303085,-0.427212 0.655384,-0.975627 0.782881,-1.218702 l 0.231822,-0.441952 -0.725419,-0.773397 c -0.398983,-0.425368 -1.335764,-1.331627 -2.081745,-2.013907 l -1.356328,-1.24051 -0.608328,0.863207 c -0.334587,0.474764 -0.658869,0.940215 -0.720647,1.034335 -0.07807,0.118946 0.154277,0.486707 0.761947,1.206048 0.480841,0.569204 1.311772,1.594193 1.846512,2.27775 0.670699,0.857355 1.025914,1.21818 1.145251,1.163353 0.09516,-0.04371 0.420977,-0.429014 0.724054,-0.856225 z m 5.409439,1.33974 c 0.05888,-0.379637 0.124643,-1.111882 0.146074,-1.62723 l 0.03894,-0.936995 -0.921345,-1.012157 c -0.506743,-0.556686 -1.290565,-1.365916 -1.741839,-1.798293 -0.784004,-0.751172 -0.820013,-0.771878 -0.809691,-0.465549 0.006,0.176323 -0.105711,0.877579 -0.248113,1.558347 l -0.258917,1.237762 0.862721,0.981682 c 0.4745,0.539928 1.228898,1.480613 1.67645,2.090414 0.753382,1.026511 0.826145,1.092176 0.981162,0.885493 0.0921,-0.12278 0.215639,-0.533842 0.274574,-0.913466 z M 48.250344,37.966281 49.337392,37.413137 48.7864,36.567625 48.235408,35.722115 47.777591,35.85442 c -2.650475,0.765966 -5.10793,1.62976 -5.156997,1.812679 -0.03626,0.135207 0.486785,1.005421 1.120375,1.863993 l 0.469356,0.636021 1.476485,-0.823844 c 0.812068,-0.453115 1.965654,-1.072759 2.563534,-1.376988 z m 26.238731,8.411236 c 0.420065,-0.285256 0.90167,-0.645664 1.070234,-0.800907 l 0.306479,-0.282261 -1.51752,-1.524028 c -1.44312,-1.449312 -2.810671,-2.657529 -2.911951,-2.572677 -0.02573,0.02156 -0.347016,0.255148 -0.713966,0.519083 l -0.667176,0.479886 0.988706,1.268973 c 0.543783,0.697935 1.304972,1.734642 1.691534,2.303795 0.386552,0.56915 0.767416,1.055511 0.846358,1.0808 0.07896,0.02527 0.487231,-0.187408 0.907302,-0.472664 z m 15.004383,3.735189 c -0.290951,-1.38017 -1.090458,-3.165695 -1.985061,-4.433229 -0.46381,-0.657147 -0.86463,-1.200539 -0.890729,-1.207539 -0.0261,-0.007 0.0536,0.338777 0.177117,0.768394 0.123512,0.429619 0.280357,1.177586 0.348553,1.662151 0.06818,0.484566 0.160189,0.89074 0.204449,0.902614 0.04424,0.01189 0.56887,0.709648 1.165793,1.550615 0.596924,0.840964 1.099383,1.534577 1.116576,1.541361 0.01717,0.0068 -0.04434,-0.346182 -0.136698,-0.784367 z M 36.966695,35.491097 c 0.807918,-0.273532 2.061055,-0.654033 2.784749,-0.845559 l 1.315809,-0.348229 0.03749,-0.456263 c 0.02062,-0.250945 0.08848,-0.773346 0.1508,-1.160887 l 0.113301,-0.704623 -1.301776,0.163629 c -0.715979,0.09 -1.92708,0.301773 -2.691338,0.470617 l -1.389559,0.30699 -0.241644,0.915591 c -0.242594,0.919125 -0.412063,2.111731 -0.304503,2.140582 0.03165,0.0085 0.718589,-0.208357 1.526507,-0.481889 z m 20.610928,6.060533 c 0.228418,-0.462011 1.381861,-3.715124 1.33918,-3.776971 -0.0199,-0.02885 -0.281211,-0.153755 -0.580684,-0.277578 l -0.544495,-0.225131 -0.680115,0.825956 c -1.421189,1.725942 -2.17323,2.71541 -2.126026,2.797227 0.05687,0.09856 1.344532,0.640556 1.991751,0.838358 0.392241,0.119872 0.461592,0.09887 0.600389,-0.181861 z m 3.052775,1.099657 c 0.01086,-0.04037 0.0397,-1.06887 0.0642,-2.285534 l 0.04452,-2.212113 -0.621166,-0.09019 c -0.341642,-0.0496 -0.647649,-0.07491 -0.680017,-0.05623 -0.0324,0.01868 -0.279747,0.645338 -0.549725,1.39258 -0.269972,0.747242 -0.592533,1.640179 -0.71679,1.984305 l -0.225923,0.625685 1.332601,0.357456 c 0.732934,0.1966 1.341473,0.324402 1.352305,0.284042 z m 1.82774,0.232563 c 0.629101,0.05608 1.190511,0.08795 1.247598,0.07082 0.09644,-0.02894 -0.296954,-1.564802 -0.940891,-3.673473 l -0.272302,-0.891698 -0.568593,-0.07329 c -0.312724,-0.0403 -0.595773,-0.05807 -0.629,-0.03948 -0.04624,0.02587 -0.180094,3.351628 -0.172692,4.291057 0.0015,0.203463 -0.04147,0.193274 1.33588,0.31605 z m -7.145757,-3.312419 c 0.469179,-0.61109 1.133893,-1.426443 1.477149,-1.811896 l 0.624091,-0.700822 -0.535051,-0.299731 -0.535046,-0.299728 -0.690062,0.447173 c -1.069467,0.693038 -3.251884,2.308849 -3.284944,2.432092 -0.02917,0.108698 1.274338,0.954351 2.018257,1.309357 0.03989,0.01904 0.456433,-0.465355 0.925606,-1.076445 z M 33.02598,33.281075 c 0.953152,-0.30952 1.924091,-0.608134 2.157638,-0.663587 0.337706,-0.08018 0.471577,-0.204842 0.653933,-0.608918 0.126115,-0.279451 0.487035,-0.862246 0.802044,-1.295097 l 0.572744,-0.787001 -1.254959,0.258787 c -1.8435,0.380148 -2.98809,0.767843 -3.366253,1.140219 -0.517161,0.509239 -1.549809,1.905729 -1.79126,2.422385 l -0.217139,0.464639 0.355124,-0.184332 c 0.195319,-0.101378 1.134976,-0.437576 2.088128,-0.747095 z m 9.898307,3.671057 c 0.581244,-0.248882 3.643426,-1.278776 4.517408,-1.51933 l 0.535775,-0.147465 -0.174953,-0.668716 c -0.09623,-0.367794 -0.20442,-0.728995 -0.240434,-0.802667 -0.131002,-0.26799 -5.785885,0.66575 -5.867173,0.96879 -0.07026,0.261906 0.482949,2.343944 0.633526,2.384335 0.03176,0.0085 0.299869,-0.08821 0.595851,-0.214947 z m 22.621109,5.910258 c 0.589686,-0.06274 1.082375,-0.152177 1.094864,-0.19875 0.02157,-0.07991 -1.521973,-2.740139 -2.246159,-3.871449 -0.324736,-0.507284 -0.349394,-0.521512 -0.877315,-0.506185 -0.298753,0.0087 -0.546259,0.02722 -0.550015,0.04121 -0.0038,0.014 0.273724,0.964615 0.616613,2.112495 0.342888,1.147881 0.632608,2.17462 0.643813,2.281637 0.02773,0.26472 0.09156,0.271551 1.318199,0.141042 z M 52.915998,38.272156 c 0.583332,-0.432451 1.503617,-1.086583 2.045087,-1.453624 l 0.984486,-0.667348 -0.367754,-0.314208 -0.367756,-0.314206 -0.893372,0.307205 c -1.699232,0.58432 -4.179593,1.668661 -4.101616,1.793103 0.06408,0.10225 1.506337,1.396858 1.579643,1.41792 0.03339,0.0096 0.537956,-0.336389 1.121282,-0.768842 z m 15.856661,3.881083 0.474189,-0.215282 -1.055064,-1.171747 c -1.155022,-1.282766 -2.722367,-2.883799 -2.852908,-2.91422 -0.04543,-0.01063 -0.236092,0.04453 -0.42373,0.122475 l -0.341166,0.141713 0.833316,1.392647 c 0.458328,0.765957 1.048308,1.786459 1.311071,2.267783 l 0.477749,0.875133 0.551175,-0.141611 c 0.303148,-0.07788 0.764562,-0.238488 1.025368,-0.356891 z m 13.884278,3.508166 c 0.336571,-1.738719 0.326249,-1.769278 -0.947978,-2.808171 -0.934868,-0.762204 -2.876222,-2.168897 -3.062052,-2.218745 -0.03182,-0.0086 -0.0653,0.203079 -0.07439,0.470255 -0.0091,0.267183 -0.0912,0.769613 -0.182537,1.11651 l -0.166207,0.630687 1.494914,1.371381 c 0.822208,0.754261 1.723053,1.617401 2.001878,1.918091 0.27883,0.300688 0.556057,0.560993 0.616059,0.578454 0.06213,0.01809 0.199965,-0.437662 0.320146,-1.058503 z m -5.783479,-1.428172 c 0.810249,-1.097489 0.794373,-1.208979 -0.294774,-2.070353 -0.50417,-0.398731 -1.564742,-1.165348 -2.356834,-1.703595 l -1.440172,-0.978632 -0.412898,0.67547 c -0.227091,0.37151 -0.399718,0.691643 -0.383612,0.711408 0.01609,0.01975 0.623933,0.582364 1.350721,1.250219 0.726777,0.667854 1.658516,1.574637 2.070518,2.01507 0.412005,0.440436 0.786827,0.810912 0.832939,0.823279 0.0461,0.01239 0.33146,-0.31292 0.634112,-0.722866 z M 50.171457,37.049514 c 0.143214,-0.134803 3.060729,-1.360953 4.024134,-1.69123 l 0.764343,-0.262037 -0.252966,-0.338198 c -0.206774,-0.276441 -0.318733,-0.331552 -0.613103,-0.301802 -0.711259,0.07189 -5.283481,1.090453 -5.308176,1.182519 -0.01388,0.05176 0.169294,0.38658 0.407066,0.744057 0.423221,0.636298 0.764213,0.868583 0.978702,0.666691 z m 36.312039,8.855389 C 86.385876,45.538121 86.1328,44.772452 85.921093,44.203413 85.571046,43.262555 85.441502,43.07812 84.491625,42.168205 83.917124,41.61788 83.26488,41.027074 83.042182,40.855303 l -0.404901,-0.31231 0.205744,0.734166 c 0.113152,0.40379 0.265363,1.083261 0.338231,1.509933 0.123794,0.724822 0.187772,0.827394 0.974256,1.561884 0.462976,0.432363 1.182667,1.159958 1.599331,1.616876 0.416657,0.456919 0.790998,0.780174 0.831851,0.718341 0.04085,-0.06183 -0.0055,-0.412511 -0.1032,-0.77929 z m -54.928294,-14.9136 c 0.587405,-0.235487 1.386692,-0.69122 1.819377,-1.037358 1.074707,-0.859741 0.578312,-0.675082 -1.516289,0.564054 -0.98276,0.581392 -1.68872,1.020227 -1.568796,0.97519 0.119926,-0.04504 0.689497,-0.270883 1.265708,-0.501886 z m 39.621091,9.804701 c -0.09519,-0.149465 -3.074456,-2.42299 -3.881054,-2.961691 -0.875114,-0.584467 -0.944241,-0.611736 -1.148806,-0.453203 -0.119714,0.09278 -0.227631,0.198859 -0.239813,0.235742 -0.01246,0.03681 0.429619,0.521073 0.981758,1.075973 0.552147,0.554903 1.409019,1.472336 1.904157,2.038739 l 0.900253,1.029827 0.758669,-0.456143 c 0.417259,-0.25088 0.743442,-0.480039 0.724836,-0.509244 z M 43.686104,33.76349 c 1.085834,-0.199282 2.402254,-0.406231 2.925383,-0.459882 l 0.951137,-0.09755 0.06614,-0.731174 c 0.03637,-0.402147 0.06083,-0.747217 0.05435,-0.766824 -0.03684,-0.111402 -4.755749,0.04963 -5.394327,0.184086 l -0.400191,0.08426 -0.167784,0.934019 c -0.151731,0.844644 -0.165215,1.17348 -0.04941,1.204545 0.02226,0.006 0.928871,-0.152196 2.014705,-0.351477 z M 38.51798,31.911342 c 1.185584,-0.213055 2.37892,-0.397527 2.65186,-0.409937 0.310296,-0.01411 0.517722,-0.09873 0.553538,-0.225822 0.03146,-0.111809 0.293983,-0.548309 0.583291,-0.970037 0.289301,-0.421727 0.516846,-0.781216 0.505651,-0.798864 -0.04598,-0.07247 -2.267561,0.02038 -3.466247,0.144872 l -1.286345,0.133596 -0.648504,0.754912 c -0.591866,0.688978 -1.236821,1.708232 -1.103546,1.743981 0.03009,0.008 1.024718,-0.159648 2.210302,-0.372701 z m 11.541946,2.875703 c 0.804484,-0.184809 2.06048,-0.436148 2.791092,-0.558535 1.326859,-0.222266 1.45638,-0.286762 1.338026,-0.666336 -0.05249,-0.16833 -0.386566,-0.195907 -2.012305,-0.166109 -2.594652,0.04756 -3.938871,0.171915 -4.036965,0.373462 -0.08411,0.172854 0.259603,1.392806 0.385392,1.367833 0.03961,-0.0079 0.730271,-0.16551 1.53476,-0.350315 z m 27.865366,7.228971 c 0.07109,-0.264978 0.14376,-0.767302 0.161497,-1.116268 l 0.03225,-0.634484 -0.808064,-0.493789 c -0.739032,-0.451603 -2.770291,-1.533159 -3.725484,-1.983651 -0.386952,-0.182496 -0.391954,-0.179899 -0.417646,0.216821 -0.01431,0.220835 -0.06673,0.553349 -0.116498,0.738908 -0.07144,0.266412 -0.02467,0.373949 0.222345,0.511239 0.510471,0.283689 3.57793,2.479076 3.975448,2.845231 0.504797,0.464976 0.529711,0.46188 0.676138,-0.08401 z M 60.652593,37.581238 c 0.03384,-0.01953 0.05068,-0.602848 0.03741,-1.29627 -0.01327,-0.693419 -0.07476,-1.229615 -0.136688,-1.191546 -0.06192,0.03807 -0.294501,0.59215 -0.516841,1.231287 l -0.404247,1.162065 0.479406,0.06498 c 0.263669,0.03574 0.507091,0.04901 0.540938,0.02948 z m -1.144716,-1.263574 c 0.185858,-0.507346 0.40627,-1.051175 0.489803,-1.208511 0.103913,-0.195732 0.101684,-0.258248 -0.0071,-0.197986 -0.226353,0.125416 -1.672074,1.741202 -1.721416,1.923914 -0.02577,0.09565 0.134211,0.199401 0.429824,0.278697 l 0.470968,0.12633 z m 2.441299,1.539004 c 0.117638,0.03052 0.227297,0.0054 0.243732,-0.05581 0.03894,-0.144676 -0.896111,-2.515356 -0.974218,-2.470287 -0.03269,0.01887 -0.05568,0.327308 -0.05101,0.685427 0.0048,0.358114 0.0058,0.906252 0.0024,1.218086 -0.0052,0.493013 0.03126,0.566975 0.279594,0.566989 0.157064,8e-6 0.381814,0.02502 0.499428,0.05559 z m 9.906357,2.202162 c 0.507159,-0.656385 0.484863,-0.813566 -0.1719,-1.211524 -1.285512,-0.778949 -3.239818,-1.846269 -3.931856,-2.147341 -0.66826,-0.290726 -0.741329,-0.299515 -0.866353,-0.104195 -0.07512,0.117315 -0.121289,0.231298 -0.102623,0.253293 0.01861,0.02199 0.58486,0.436146 1.258264,0.920346 0.673412,0.4842 1.699144,1.265556 2.279395,1.736346 0.580255,0.470791 1.097754,0.87232 1.149983,0.892284 0.05224,0.01996 0.225538,-0.132673 0.385112,-0.339196 z M 37.06122,29.483133 c 0.485385,-0.06918 0.838942,-0.219832 1.139247,-0.48542 0.239494,-0.211804 0.763664,-0.601313 1.164822,-0.865575 0.401153,-0.264263 0.707859,-0.517762 0.68157,-0.563331 -0.0263,-0.04558 -0.655729,0.0394 -1.398741,0.188825 -1.14949,0.231168 -1.572147,0.398283 -2.834468,1.120724 -2.093699,1.198254 -2.218392,1.382574 -0.680046,1.005263 0.6731,-0.165091 1.540527,-0.345309 1.927616,-0.400486 z m 21.561216,6.169803 c 0.482116,-0.516444 0.843438,-0.947878 0.802943,-0.95874 -0.04051,-0.01086 -0.642167,0.306972 -1.337044,0.706299 -1.123956,0.64591 -1.239313,0.743808 -1.045128,0.88696 0.531996,0.392171 0.67408,0.33508 1.579229,-0.634519 z m 4.863642,2.099787 c 0.119982,-0.02808 -0.08742,-0.398131 -0.618855,-1.10421 -0.439616,-0.584092 -0.855711,-1.121087 -0.924652,-1.193324 -0.06894,-0.07224 0.08397,0.428949 0.339783,1.113744 0.479476,1.283482 0.536792,1.339848 1.203724,1.18379 z m -5.800127,-2.643093 1.176267,-0.730158 -1.207719,0.360093 c -0.664251,0.198053 -1.362435,0.408109 -1.551525,0.466792 l -0.343804,0.106696 0.250327,0.241787 c 0.137675,0.132982 0.306541,0.251495 0.375252,0.263365 0.06872,0.01187 0.654259,-0.306988 1.301202,-0.708575 z m 24.995394,7.685505 c 0.04051,-0.167156 -0.344615,-1.587728 -0.605675,-2.23395 -0.216265,-0.535327 -0.394482,-0.73133 -1.13707,-1.250539 -0.857993,-0.599899 -2.623092,-1.579063 -2.732608,-1.515875 -0.0301,0.01734 0.03464,0.506423 0.143847,1.086821 l 0.198522,1.055273 0.886482,0.593842 c 0.487564,0.326614 1.371816,0.977487 1.965004,1.446385 1.132346,0.895084 1.245327,0.967204 1.281498,0.818043 z m -17.86664,-5.32307 c 0.04748,-0.04463 -0.410131,-0.519651 -1.016784,-1.055584 -0.606658,-0.535935 -1.10947,-0.950339 -1.117368,-0.920898 -0.0077,0.02948 0.335164,0.531179 0.762364,1.114978 0.631134,0.862499 0.824398,1.050315 1.031143,1.002056 0.139927,-0.03267 0.293222,-0.09591 0.340645,-0.140552 z m -14.33675,-4.487119 c 1.16608,-0.05864 2.459676,-0.111436 2.87466,-0.117321 0.705487,-0.01 0.995144,-0.184426 0.745956,-0.449169 -0.121328,-0.128896 -2.753041,-0.486635 -4.481737,-0.609221 -0.705543,-0.05003 -1.296572,-0.09448 -1.313394,-0.09878 -0.05842,-0.01492 -0.186119,0.573768 -0.212368,0.97906 -0.01453,0.224188 0.03955,0.406366 0.120171,0.404831 0.08062,-0.0015 1.100634,-0.05076 2.266709,-0.109411 z m -4.491014,-1.756444 1.969858,-0.02317 0.260376,-0.41017 c 0.143215,-0.225592 0.326173,-0.50029 0.406578,-0.61044 0.166333,-0.227864 0.174255,-0.226291 -2.614948,-0.519278 -2.38171,-0.250182 -2.39243,-0.248489 -2.975527,0.469741 -0.275095,0.338851 -0.577164,0.75575 -0.67126,0.92644 l -0.171082,0.310349 0.913074,-0.06014 c 0.502193,-0.03308 1.799506,-0.07057 2.882931,-0.08332 z m 9.837036,3.568744 c 0.192726,-0.07927 0.748601,-0.257962 1.235273,-0.397083 0.486673,-0.139123 0.890999,-0.27584 0.898501,-0.303815 0.0075,-0.02798 -0.484271,-0.0038 -1.092843,0.05366 -0.608567,0.05748 -1.2754,0.120087 -1.48185,0.139111 -0.357848,0.03298 -0.368537,0.04792 -0.229034,0.320195 0.180905,0.353075 0.232962,0.367677 0.669953,0.187932 z m 10.002922,2.126656 c 0.02548,-0.0958 -1.295056,-0.982478 -2.049283,-1.375867 -0.297683,-0.155268 -0.281816,-0.115957 0.117806,0.291827 0.905888,0.924406 1.503562,1.369804 1.710521,1.274727 0.106526,-0.04894 0.205953,-0.134747 0.220956,-0.190687 z m 6.832293,1.171673 c 0.0516,-0.355392 0.08239,-0.665209 0.06842,-0.688479 -0.05076,-0.08459 -3.004975,-1.245455 -4.201771,-1.651099 -0.994247,-0.336989 -1.236338,-0.384653 -1.270781,-0.250206 -0.08476,0.331514 0.09374,0.472631 1.437231,1.135537 0.751754,0.370932 1.856052,0.969015 2.453992,1.329074 1.489098,0.896677 1.401938,0.889467 1.512904,0.125173 z M 56.155246,33.749807 c 1.242698,-0.176958 1.217937,-0.207586 -0.256878,-0.317813 -1.248449,-0.09331 -1.333766,-0.07911 -1.205291,0.200533 0.132007,0.287343 0.218942,0.294317 1.462169,0.11728 z m 28.023726,7.125958 c -0.507584,-0.775068 -1.952661,-2.517188 -2.49349,-3.006029 -0.910585,-0.823057 -0.9427,-0.730004 -0.181773,0.526812 0.647315,1.069194 0.906866,1.372618 1.684895,1.969675 0.505837,0.388179 1.010682,0.814299 1.121882,0.946934 0.388088,0.462898 0.328683,0.265306 -0.131505,-0.43739 z m -43.0396,-11.819259 c 0.983063,-0.04644 1.87771,-0.06261 1.988105,-0.03593 0.110384,0.0267 0.33882,-0.07621 0.507612,-0.228651 0.16879,-0.15244 0.636589,-0.505008 1.039554,-0.783484 l 0.732656,-0.506325 -0.569638,-0.05948 c -0.763359,-0.07972 -2.557158,-0.117947 -3.024309,-0.06445 -0.381079,0.04364 -2.848263,1.499452 -2.906016,1.714756 -0.01746,0.06516 0.07415,0.101763 0.206621,0.08254 0.130917,-0.01898 1.042352,-0.07253 2.025415,-0.118969 z m 25.309699,7.253579 c 0.03087,-0.115793 -0.229917,-0.292241 -0.829857,-0.561238 -1.404453,-0.629716 -1.5558,-0.604843 -0.478622,0.07866 1.080399,0.68555 1.238408,0.743825 1.308479,0.482578 z m 11.548969,2.941183 c -0.233091,-1.025917 -0.655204,-1.95592 -0.954219,-2.102339 -0.601084,-0.29433 -2.083421,-0.887591 -3.129027,-1.252296 l -1.044353,-0.364272 0.155261,0.754853 0.155256,0.754853 1.615249,0.800962 c 0.88839,0.440531 1.891627,0.97679 2.229409,1.191689 0.894274,0.568931 1.06092,0.606041 0.972424,0.216547 z M 50.571391,31.418296 c 0.874043,0.09195 2.071948,0.229417 2.662012,0.305463 0.96948,0.124945 1.278483,0.08186 1.357168,-0.189227 0.03096,-0.106186 -4.654755,-1.379706 -5.07648,-1.379724 -0.174577,-4e-6 -0.40898,0.165469 -0.604716,0.426898 -0.410166,0.547825 -0.441885,0.68381 -0.15767,0.675841 0.126776,-0.0035 0.945623,0.06878 1.819665,0.160742 z m 5.658513,1.565876 1.420424,0.06528 -1.421751,-0.304006 c -1.417847,-0.303171 -1.725362,-0.305614 -1.637563,-0.01301 0.0574,0.191322 -0.05651,0.173828 1.63889,0.251738 z m 10.604846,2.401686 c -0.02944,-0.09818 -0.545668,-0.282604 -1.415109,-0.505588 l -1.368744,-0.35104 1.285975,0.566525 c 1.24255,0.547396 1.595593,0.615772 1.497878,0.290103 z m 5.840113,1.349945 c 0.01041,-0.03819 -0.08688,-0.367235 -0.21584,-0.73115 L 72.224548,35.34299 70.362216,34.927792 c -2.047655,-0.456516 -3.175176,-0.641867 -3.203035,-0.526541 -0.07131,0.294701 0.200684,0.461181 1.406781,0.861284 0.723315,0.239945 1.81779,0.645638 2.432166,0.901538 1.333899,0.555593 1.651969,0.664049 1.676735,0.57173 z M 45.327809,29.070758 c 0.255465,0.0045 1.222704,0.119805 2.149411,0.256121 0.926708,0.136317 1.691499,0.237941 1.699536,0.22583 0.0081,-0.01207 0.284157,-0.221325 0.6136,-0.464918 l 0.598981,-0.442903 -0.617055,-0.237706 c -0.339381,-0.130741 -1.237352,-0.362069 -1.995494,-0.514067 -1.239388,-0.248482 -1.425576,-0.254317 -1.845706,-0.05785 -0.472626,0.221025 -1.736373,1.039511 -1.763993,1.142478 -0.01482,0.05522 0.255635,0.0769 1.16072,0.09301 z m 11.779715,3.308056 c -0.243952,-0.247168 -1.883883,-0.708075 -2.092035,-0.587973 -0.136349,0.07867 0.112816,0.181096 1.034779,0.425385 0.774098,0.205123 1.157405,0.264054 1.057261,0.162587 z m 23.77302,5.903712 c -0.166809,-0.301819 -0.599844,-0.923579 -0.962308,-1.38169 -0.677231,-0.855944 -1.247594,-1.256841 -2.502093,-1.758678 -0.357109,-0.142856 -0.751453,-0.317475 -0.876317,-0.388044 -0.124862,-0.07056 0.09984,0.39027 0.499333,1.024086 l 0.726363,1.152399 1.598018,0.903569 c 0.878908,0.496964 1.648027,0.924618 1.709156,0.950345 0.06112,0.02573 -0.02534,-0.200168 -0.192152,-0.501987 z M 66.723458,34.556183 c 0.06039,-0.225134 -0.224863,-0.319929 -1.140215,-0.378912 l -0.899504,-0.05796 1.002993,0.281322 c 0.615344,0.172595 1.01603,0.232714 1.036726,0.155552 z M 57.74463,31.966879 c 0.0075,-0.02782 -0.369061,-0.256433 -0.836722,-0.508039 -0.737367,-0.396713 -0.884362,-0.441963 -1.106836,-0.340725 -0.230004,0.104659 -0.1902,0.142474 0.384753,0.365496 0.860359,0.333728 1.542213,0.54512 1.558805,0.483268 z m -2.562508,-1.06544 c 0.07234,-0.06638 0.141874,-0.15591 0.154525,-0.19897 0.02806,-0.09537 -1.631575,-0.892192 -3.057783,-1.468107 l -1.04611,-0.422428 -0.749367,0.432158 -0.749368,0.432157 2.658286,0.672934 c 1.889625,0.478347 2.696324,0.638038 2.789817,0.552256 z m 10.001884,2.741988 c 0.9879,0.06792 1.115818,0.04961 0.981258,-0.140468 -0.171533,-0.242314 -0.679231,-0.269953 -1.779505,-0.09688 -0.717964,0.112941 -0.629754,0.139164 0.798247,0.237348 z M 40.869773,26.953804 c 0.365558,-0.05558 1.039185,-0.236362 1.496952,-0.401728 1.434009,-0.518032 1.022284,-0.483476 -1.036424,0.08699 -1.529284,0.423763 -1.629939,0.492552 -0.460528,0.31474 z m 17.26589,4.375301 C 57.6142,30.858086 57.21945,30.59033 57.057333,30.597674 c -0.446809,0.02024 -0.326002,0.171327 0.618369,0.773351 1.294748,0.825388 1.408664,0.815007 0.459961,-0.04192 z m 3.320484,0.216945 0.306641,-0.800115 -0.420695,-0.11285 c -0.231383,-0.06206 -0.457775,-0.09146 -0.503094,-0.0653 -0.04529,0.02616 -0.04047,0.464941 0.01075,0.975092 0.05125,0.510151 0.139651,0.899589 0.196457,0.865418 0.05679,-0.03418 0.241269,-0.422181 0.409914,-0.862246 z m 0.874227,0.463264 c 0.918501,-0.767458 0.905951,-0.737398 0.368118,-0.881667 l -0.480937,-0.129005 -0.271223,0.666706 c -0.149176,0.36669 -0.325171,0.74596 -0.3911,0.842823 -0.166384,0.244444 0.05967,0.09897 0.775142,-0.498857 z m 1.912565,0.05883 c 0.264004,-0.06688 0.227207,-0.13977 -0.183057,-0.362526 -0.277322,-0.15058 -0.391018,-0.108846 -1.051166,0.385932 -0.407114,0.305127 -0.751248,0.59581 -0.764749,0.645964 -0.01345,0.05016 0.38138,-0.06743 0.877511,-0.261297 0.49613,-0.193864 1.000783,-0.377499 1.121461,-0.408073 z m -0.0252,0.864324 c 0.44604,-0.05463 0.929296,-0.107963 1.073901,-0.118523 0.220168,-0.01608 0.238692,-0.04549 0.113877,-0.180862 -0.266384,-0.288936 -0.552459,-0.283045 -1.438109,0.02962 -0.813352,0.287137 -1.125833,0.456114 -0.731078,0.39534 0.09374,-0.01442 0.53538,-0.07093 0.981409,-0.125569 z m -4.819618,-1.353687 c -0.385964,-0.842438 -0.685729,-1.155724 -1.12514,-1.175893 -0.405854,-0.01863 -0.403502,-0.01423 0.414049,0.772838 0.452218,0.435367 0.839878,0.797266 0.861452,0.804222 0.02156,0.007 -0.0461,-0.17357 -0.150361,-0.401167 z m 0.984866,-0.202876 c -0.08469,-0.879869 -0.135509,-0.954485 -0.666838,-0.978873 l -0.399097,-0.01832 0.516263,0.905702 c 0.28395,0.498138 0.540099,0.891956 0.569217,0.875155 0.02911,-0.01681 0.02033,-0.369454 -0.01952,-0.783667 z m 8.656664,2.759896 c 0.712571,0.119248 1.658965,0.314288 2.103104,0.433424 l 0.80752,0.216607 -0.368047,-0.523568 c -0.617681,-0.878699 -0.680408,-0.915784 -1.67307,-0.989161 -0.801531,-0.05925 -2.588404,-0.08785 -3.07489,-0.04921 -0.148703,0.01181 -0.154684,0.07415 -0.0304,0.316746 0.113463,0.221445 0.259547,0.312224 0.547463,0.340198 0.215998,0.02099 0.975731,0.135723 1.688298,0.254971 z m 7.888522,2.338174 c 0.02033,-0.07483 -1.283203,-1.838061 -1.525785,-2.064189 -0.189824,-0.176947 -0.65047,-0.318477 -1.871909,-0.575127 -0.891067,-0.187229 -1.669225,-0.325949 -1.729242,-0.308263 -0.06001,0.01769 0.08864,0.338681 0.330335,0.71332 l 0.439458,0.681165 1.198199,0.410912 c 0.659008,0.226 1.488087,0.53637 1.84238,0.689704 0.704789,0.305019 1.30114,0.509976 1.316564,0.452478 z m -20.440541,-6.212133 0.350887,-0.145648 -0.970177,-0.677003 c -0.533599,-0.372353 -1.259699,-0.847902 -1.61355,-1.056774 -0.643273,-0.379716 -0.643468,-0.379746 -1.361786,-0.20673 -1.066402,0.256859 -1.193045,0.391447 -0.544634,0.578797 0.291752,0.08429 1.182651,0.463136 1.97977,0.841862 1.815628,0.862638 1.740394,0.839452 2.15949,0.665496 z m -11.755375,-3.29315 c 1.415982,0.131707 1.488865,0.123129 2.794401,-0.328883 0.773029,-0.267646 1.264944,-0.501691 1.162019,-0.552873 -0.09817,-0.04882 -0.655359,-0.132221 -1.23822,-0.185348 -0.871593,-0.07944 -1.30952,-0.03059 -2.466671,0.275171 -1.285912,0.339783 -1.97216,0.58515 -1.780416,0.636583 0.04125,0.01109 0.729244,0.08097 1.528887,0.15535 z m 22.532799,5.759532 c 0.514985,-0.01474 1.424939,0.0032 2.022121,0.03981 l 1.085796,0.06661 -0.482349,-0.488918 c -0.816209,-0.827328 -1.160115,-0.896933 -2.782646,-0.563198 -0.779976,0.160431 -1.429854,0.335357 -1.44417,0.388725 -0.02648,0.09791 0.361189,0.477083 0.558333,0.546327 0.05862,0.02057 0.52793,0.02538 1.042915,0.01064 z M 52.065857,27.958626 53.015205,27.634902 52.473221,27.35733 c -0.29809,-0.152665 -0.954045,-0.42912 -1.457678,-0.614348 -0.853107,-0.31376 -0.966017,-0.325541 -1.651884,-0.17237 -0.404907,0.09043 -1.059895,0.275504 -1.455534,0.411288 l -0.719337,0.246881 1.963861,0.526786 1.963862,0.526787 z m 5.820468,1.967804 0.424283,-0.05804 -0.207837,-0.327419 c -0.370743,-0.584062 -1.376765,-1.714701 -1.574672,-1.769734 -0.26795,-0.0745 -1.978234,0.02386 -2.002732,0.115188 -0.01097,0.04101 0.392631,0.345477 0.89696,0.676585 0.504334,0.331107 1.108487,0.765239 1.34256,0.964735 0.524191,0.446755 0.59251,0.471045 1.121438,0.398687 z m 7.448036,1.791716 c 0.07976,-0.04271 0.76065,-0.208671 1.513087,-0.36881 l 1.368077,-0.29116 -0.602345,-0.37049 c -1.297384,-0.797989 -1.309133,-0.798836 -2.38759,-0.172223 -0.532316,0.309294 -0.977359,0.597788 -0.988974,0.641098 -0.02038,0.07502 0.565028,0.493746 0.828029,0.592439 0.06859,0.02574 0.189963,0.01186 0.269716,-0.03085 z m -5.221209,-1.768219 c 0.0398,-0.0197 -0.02767,-0.497739 -0.149992,-1.0623 -0.216075,-0.997455 -0.233802,-1.027558 -0.626854,-1.064689 -1.019981,-0.09636 -1.823476,-0.143266 -1.930645,-0.112703 -0.06444,0.01837 0.09916,0.285674 0.363545,0.594 0.264391,0.308325 0.628376,0.777642 0.80886,1.042928 0.290565,0.427104 0.3931,0.49128 0.89543,0.560462 0.312009,0.04298 0.599858,0.06201 0.639656,0.0423 z m 5.437098,-0.301863 c 0.02462,-0.07169 -0.978933,-0.488358 -1.92715,-0.800141 -0.378879,-0.124579 -0.419821,-0.07437 -0.965032,1.183253 l -0.212967,0.49126 0.569576,0.192891 c 0.560923,0.189963 0.584316,0.183926 1.538793,-0.397065 0.53307,-0.324475 0.981619,-0.626066 0.996784,-0.6702 z m 12.015103,4.756002 c -0.727231,-0.768674 -2.56474,-2.046716 -3.374087,-2.346778 l -0.772828,-0.286523 0.682581,0.622982 c 0.375419,0.34264 0.875353,0.83197 1.110973,1.0874 0.256874,0.278479 0.611478,0.517407 0.885693,0.596772 0.251517,0.0728 0.692455,0.242536 0.979869,0.377199 0.843161,0.395054 0.903842,0.388704 0.487799,-0.05106 z m -15.60776,-4.161445 c 0.174974,-0.158044 0.822265,-1.562875 0.765469,-1.66131 -0.06022,-0.104365 -1.207614,-0.399756 -1.886363,-0.485635 l -0.57765,-0.07308 0.203735,1.018557 0.203737,1.018559 0.575799,0.154453 c 0.326755,0.08764 0.63612,0.09996 0.715273,0.02846 z m 12.716609,3.365501 c 0.03107,-0.01478 -0.465007,-0.468116 -1.102335,-1.007426 -1.284042,-1.086556 -1.515397,-1.171259 -3.147872,-1.152515 l -0.788318,0.0091 0.70405,0.684508 0.704049,0.684506 1.786987,0.404367 c 0.982851,0.222402 1.812393,0.392281 1.843439,0.377507 z m -19.771393,-6.296334 1.129898,-0.114451 -0.346076,-0.322146 c -0.190339,-0.177181 -0.603642,-0.458421 -0.918448,-0.624975 -0.513544,-0.271702 -0.674905,-0.296284 -1.56987,-0.239146 -0.548622,0.03503 -1.242241,0.0989 -1.541372,0.141954 l -0.543885,0.07827 1.103017,0.517595 c 1.512792,0.709882 1.422479,0.690961 2.686736,0.562901 z m -3.62199,-1.584737 c 0.65685,-0.10311 1.284486,-0.194822 1.394739,-0.203803 0.110249,-0.0089 0.02939,-0.06686 -0.17964,-0.128605 -0.436378,-0.1289 -2.43914,-0.111232 -3.254901,0.02871 l -0.551022,0.09453 0.698272,0.198318 c 0.56175,0.159547 0.931771,0.161665 1.892552,0.01086 z m 18.42888,5.250005 c 0.36265,-0.01181 0.8952,-0.02346 1.18344,-0.02588 l 0.524066,-0.0044 -1.353751,-0.801154 c -0.744568,-0.440638 -1.45851,-0.829957 -1.58655,-0.865158 -0.257405,-0.07078 -1.44292,0.219447 -1.48133,0.362632 -0.02134,0.0789 1.618419,1.188278 1.936221,1.310036 0.0652,0.02498 0.415251,0.03575 0.777904,0.02395 z m -11.50519,-3.715847 1.336371,0.06771 -0.232924,-0.498072 c -0.228653,-0.488932 -0.246858,-0.500314 -0.99208,-0.620239 -1.069479,-0.172104 -2.877768,-0.264909 -2.908782,-0.149282 -0.01431,0.05331 0.04242,0.116026 0.126014,0.139377 0.0836,0.02336 0.390942,0.248213 0.682977,0.499693 0.292024,0.251479 0.558204,0.465308 0.591506,0.475173 0.03331,0.0098 0.661914,0.0484 1.396918,0.08564 z m 14.768243,3.89396 c 0.122196,-0.0382 -0.317173,-0.340862 -1.238365,-0.853062 -1.88988,-1.05081 -2.180396,-1.097318 -0.577978,-0.09253 0.707294,0.443505 1.303025,0.835909 1.323854,0.87201 0.06007,0.104116 0.286546,0.137951 0.492489,0.07358 z m -5.984131,-2.063224 0.722231,-0.2476 -1.323511,-0.507641 c -0.727937,-0.279203 -1.549196,-0.598636 -1.825024,-0.709854 -0.458094,-0.18471 -0.519485,-0.177316 -0.709204,0.08543 -0.429008,0.59413 -0.532926,0.521313 2.21738,1.553734 0.107748,0.04045 0.520901,-0.03789 0.918128,-0.174063 z m -3.908864,-1.059483 c 0.01942,-0.0081 0.116927,-0.179809 0.216708,-0.381466 l 0.181411,-0.366651 -1.155849,-0.310043 c -0.635719,-0.170523 -1.4996,-0.364764 -1.919733,-0.431695 l -0.76388,-0.121651 0.204045,0.497051 0.204043,0.497052 1.49898,0.316109 c 0.824441,0.173859 1.514862,0.309441 1.534275,0.301294 z m -7.977065,-2.54199 0.533042,-0.03786 -0.5675,-0.07735 c -0.621008,-0.08463 -1.184516,-0.01397 -0.743991,0.0933 0.134979,0.03284 0.48528,0.04272 0.778449,0.0219 z m 0.949194,-0.0156 c -0.02963,-0.05138 -0.133671,-0.08393 -0.231149,-0.07232 -0.107725,0.01283 -0.08658,0.04948 0.05392,0.09344 0.127136,0.03978 0.206889,0.03027 0.177235,-0.02111 z"
       id="path24" />
    <g
       id="g926">
      <rect
         style="fill:#eaf4fb;fill-opacity:1;stroke:none;stroke-width:0.277295"
         id="rect26"
         width="191.68179"
         height="97.0653"
         x="9.0871639"
         y="55.655331" />
      <rect
         style="fill:#597d97;fill-opacity:1;stroke:none;stroke-width:0.264583"
         id="rect28-5"
         width="7.3070521"
         height="32.452282"
         x="1.7801119"
         y="55.655331" />
      <rect
         style="fill:#6a9bbe;fill-opacity:1;stroke:none;stroke-width:0.264583"
         id="rect28-5-5"
         width="7.3070521"
         height="32.452282"
         x="1.7801119"
         y="88.107605" />
      <rect
         style="fill:#c4e1f5;fill-opacity:1;stroke:none;stroke-width:0.264583"
         id="rect28-5-5-6"
         width="7.3070521"
         height="32.452282"
         x="1.7801113"
         y="120.55989" />
      <g
         id="g959"
         transform="translate(13.368922,12.358135)">
        <text
           xml:space="preserve"
           style="font-style:normal;font-weight:normal;font-size:21.1667px;line-height:1;font-family:sans-serif;fill:#000000;fill-opacity:1;stroke:none;stroke-width:0.264583"
           x="18.824793"
           y="81.894775"
           id="text930"><tspan
             sodipodi:role="line"
             x="18.824793"
             y="81.894775"
             style="font-style:normal;font-variant:normal;font-weight:normal;font-stretch:normal;font-size:19.7556px;font-family:'Cambria Math';-inkscape-font-specification:'Cambria Math, Normal';font-variant-ligatures:normal;font-variant-caps:normal;font-variant-numeric:normal;font-variant-east-asian:normal;stroke-width:0.264583"
             id="tspan938">Technical </tspan><tspan
             sodipodi:role="line"
             x="18.824793"
             y="103.06148"
             style="font-style:normal;font-variant:normal;font-weight:normal;font-stretch:normal;font-size:19.7556px;font-family:'Cambria Math';-inkscape-font-specification:'Cambria Math, Normal';font-variant-ligatures:normal;font-variant-caps:normal;font-variant-numeric:normal;font-variant-east-asian:normal;stroke-width:0.264583"
             id="tspan952">Documentation</tspan></text>
        <text
           xml:space="preserve"
           style="font-style:normal;font-variant:normal;font-weight:normal;font-stretch:normal;font-size:8.46667px;line-height:1.25;font-family:'Cambria Math';-inkscape-font-specification:'Cambria Math, Normal';font-variant-ligatures:normal;font-variant-caps:normal;font-variant-numeric:normal;font-variant-east-asian:normal;fill:#597d97;fill-opacity:1;stroke:none;stroke-width:0.264583"
           x="18.287359"
           y="115.50261"
           id="text948"><tspan
             sodipodi:role="line"
             id="tspan946"
             x="18.287359"
             y="115.50261"
             style="font-style:normal;font-variant:normal;font-weight:normal;font-stretch:normal;font-size:8.46667px;font-family:'Cambria Math';-inkscape-font-specification:'Cambria Math, Normal';font-variant-ligatures:normal;font-variant-caps:normal;font-variant-numeric:normal;font-variant-east-asian:normal;fill:#597d97;fill-opacity:1;stroke-width:0.264583">written in PUG and SASS</tspan></text>
      </g>
    </g>
  </g>
</svg>
